<?xml version="1.0" encoding="UTF-8" standalone="no"?>
<!-- Created with Inkscape (http://www.inkscape.org/) -->

<svg
   xmlns:dc="http://purl.org/dc/elements/1.1/"
   xmlns:cc="http://creativecommons.org/ns#"
   xmlns:rdf="http://www.w3.org/1999/02/22-rdf-syntax-ns#"
   xmlns:svg="http://www.w3.org/2000/svg"
   xmlns="http://www.w3.org/2000/svg"
   xmlns:sodipodi="http://sodipodi.sourceforge.net/DTD/sodipodi-0.dtd"
   xmlns:inkscape="http://www.inkscape.org/namespaces/inkscape"
   id="svg3004"
   version="1.1"
   inkscape:version="0.48.5 r10040"
   width="744.095"
   height="1052.3625"
   xml:space="preserve"
   sodipodi:docname="WeightMonitoring.svg"
   inkscape:export-filename="/Users/arthuradmiraal/Documents/EISFlowSensing/EISFlowSensing/Documentation/Render/WeightMonitoring.png"
   inkscape:export-xdpi="300"
   inkscape:export-ydpi="300"><metadata
     id="metadata3010"><rdf:RDF><cc:Work
         rdf:about=""><dc:format>image/svg+xml</dc:format><dc:type
           rdf:resource="http://purl.org/dc/dcmitype/StillImage" /><dc:title></dc:title></cc:Work></rdf:RDF></metadata><defs
     id="defs3008"><clipPath
       clipPathUnits="userSpaceOnUse"
       id="clipPath3024"><path
         d="M 0,0 1466,0 1466,711 0,711 0,0 z"
         id="path3026" /></clipPath><clipPath
       clipPathUnits="userSpaceOnUse"
       id="clipPath7880"><path
         d="M 97.137,-147.74954 291.41098,-147.74954 291.41098,297.16138 97.137,297.16138"
         id="path7882" /></clipPath><clipPath
       clipPathUnits="userSpaceOnUse"
       id="clipPath7892"><path
         d="M -44.60991,-5.99245 -44.60991,155.40428 433.15788,155.40428 433.15788,-5.99245"
         id="path7894" /></clipPath><clipPath
       clipPathUnits="userSpaceOnUse"
       id="clipPath8080"><path
         d="M 97.137,-5.99245 291.41098,-5.99245 291.41098,155.40428 97.137,155.40428 97.137,-5.99245 z"
         id="path8082" /></clipPath></defs><sodipodi:namedview
     pagecolor="#ffffff"
     bordercolor="#666666"
     borderopacity="1"
     objecttolerance="10"
     gridtolerance="10"
     guidetolerance="10"
     inkscape:pageopacity="0"
     inkscape:pageshadow="2"
     inkscape:window-width="1442"
     inkscape:window-height="803"
     id="namedview3006"
     showgrid="false"
     inkscape:zoom="1.7940585"
     inkscape:cx="181.62054"
     inkscape:cy="273.9329"
     inkscape:window-x="0"
     inkscape:window-y="0"
     inkscape:window-maximized="0"
     inkscape:current-layer="g3012" /><g
     id="g3012"
     inkscape:groupmode="layer"
     inkscape:label="Flow_dependency_of_electrolyte_resistance_V3_1"
     transform="matrix(1.25,0,0,-1.25,0,1052.3625)"><g
       id="g7850"
       transform="translate(73.117243,142.47716)" /><g
       id="g7852"
       transform="translate(73.117243,142.47716)" /><g
       id="g7854"
       transform="translate(73.117243,142.47716)"><g
         id="g7856" /></g><g
       id="g7858"
       transform="translate(73.117243,142.47716)" /><g
       id="g7860"
       transform="translate(73.117243,142.47716)" /><g
       id="g7862"
       transform="translate(73.117243,142.47716)" /><g
       id="g7864"
       transform="translate(73.117243,142.47716)" /><g
       id="g7876"
       transform="translate(-24.018757,148.47016)"
       style="stroke:#c8c8c8;stroke-opacity:1"><g
         id="g7878"
         clip-path="url(#clipPath7880)"
         style="stroke:#c8c8c8;stroke-opacity:1"><g
           id="g7884"
           style="stroke:#c8c8c8;stroke-opacity:1"><path
             d="M 97.137,-5.99245 97.137,-1.73991 M 145.70549,-5.99245 145.70549,-1.73991 M 194.27399,-5.99245 194.27399,-1.73991 M 242.84248,-5.99245 242.84248,-1.73991 M 291.41098,-5.99245 291.41098,-1.73991 M 97.137,155.40428 97.137,151.15176 M 145.70549,155.40428 145.70549,151.15176 M 194.27399,155.40428 194.27399,151.15176 M 242.84248,155.40428 242.84248,151.15176 M 291.41098,155.40428 291.41098,151.15176"
             style="fill:none;stroke:#c8c8c8;stroke-width:0.19925000000000001;stroke-linecap:butt;stroke-linejoin:miter;stroke-miterlimit:10;stroke-opacity:1;stroke-dasharray:none"
             id="path7886"
             inkscape:connector-curvature="0" /></g></g></g><g
       id="g11978"
       style="stroke:#ffffff;stroke-opacity:1"><g
         transform="translate(-24.018757,148.47016)"
         id="g7888"
         style="stroke:#ffffff;stroke-opacity:1"><g
           clip-path="url(#clipPath7892)"
           id="g7890"
           style="stroke:#ffffff;stroke-opacity:1"><g
             id="g7896"
             style="stroke:#ffffff;stroke-opacity:1"><path
               inkscape:connector-curvature="0"
               id="path7898"
               style="fill:none;stroke:#ffffff;stroke-width:0.19925000000000001;stroke-linecap:butt;stroke-linejoin:miter;stroke-miterlimit:10;stroke-opacity:1;stroke-dasharray:none"
               d="M 97.137,4.29778 101.3892,4.29778 M 97.137,29.57896 101.3892,29.57896 M 97.137,54.86017 101.3892,54.86017 M 97.137,80.14136 101.3892,80.14136 M 97.137,105.42255 101.3892,105.42255 M 97.137,130.70375 101.3892,130.70375 M 291.41098,4.29778 287.15874,4.29778 M 291.41098,29.57896 287.15874,29.57896 M 291.41098,54.86017 287.15874,54.86017 M 291.41098,80.14136 287.15874,80.14136 M 291.41098,105.42255 287.15874,105.42255 M 291.41098,130.70375 287.15874,130.70375" /></g></g></g><path
         inkscape:connector-curvature="0"
         id="path7900"
         style="fill:none;stroke:#ffffff;stroke-width:0.39850000000000002;stroke-linecap:butt;stroke-linejoin:miter;stroke-miterlimit:10;stroke-opacity:1;stroke-dasharray:none"
         d="M 73.118243,142.47771 73.118243,303.87444 267.39222,303.87444 267.39222,142.47771 73.118243,142.47771 z" /></g><g
       id="g8078"
       clip-path="url(#clipPath8080)"
       transform="translate(-24.018757,148.47016)"
       style="stroke:#69b3ff;stroke-opacity:1"><g
         id="g8084"
         style="stroke:#69b3ff;stroke-opacity:1"><path
           d="M 0,0 0,0.25279 2.42842,0.3792 2.42842,0.5056 4.85684,0.5056 4.85684,0.63202 7.28526,0.7584 7.28526,0.88483 9.7137,1.01122 12.14212,1.01122 12.14212,1.13763 14.57054,1.26405 14.57054,1.26405 16.99896,1.39044 16.99896,1.51685 19.4274,1.64325 19.4274,1.76965 21.85582,1.89607 21.85582,1.89607 24.28424,2.02246 24.28424,2.14888 26.71266,2.14888 26.71266,2.27527 29.1411,2.40169 29.1411,2.40169 31.56952,2.5281 31.56952,2.6545 33.99794,2.7809 33.99794,2.9073 36.42636,2.9073 36.42636,3.03372 38.8548,3.28653 41.28322,3.28653 41.28322,3.41295 43.71164,3.53934 43.71164,3.66576 46.14006,3.66576 46.14006,3.79218 48.5685,3.91856 48.5685,3.91856 50.99692,4.04497 50.99692,4.17137 53.42534,4.29778 53.42534,4.29778 55.85376,4.4242 55.85376,4.55058 58.2822,4.677 58.2822,4.677 60.71062,4.80339 60.71062,4.92981 63.13904,4.92981 63.13904,5.05623 65.56746,5.18262 65.56746,5.30902 67.9959,5.30902 67.9959,5.43542 70.42432,5.56183 70.42432,5.56183 72.85274,5.68825 72.85274,5.81464 75.28116,5.94106 75.28116,5.94106 77.7096,6.06746 77.7096,6.19388 80.13802,6.19388 80.13802,6.3203 82.56644,6.44669 82.56644,6.44669 84.99486,6.57309 84.99486,6.6995 87.4233,6.8259 87.4233,6.8259 89.85172,6.95232 92.28014,7.0787 92.28014,7.20512 94.70856,7.33151 94.70856,7.33151 97.137,7.45793 97.137,7.58435 99.56541,7.83714 99.56541,8.59557 101.99384,9.60683 101.99384,10.61807 104.42226,11.75572 104.42226,12.6406 106.8507,13.77823 106.8507,14.66306 109.27911,15.67432 109.27911,16.81197 111.70753,17.69682 111.70753,18.70805 114.13596,19.7193 114.13596,20.73055 116.56439,21.6154 116.56439,22.50023 118.99281,23.6379 118.99281,24.52274 121.42123,25.53398 121.42123,26.41882 123.84966,27.17726 123.84966,28.31491 126.27809,29.07336 126.27809,30.211 128.70651,31.09584 128.70651,32.10709 131.13493,32.99193 131.13493,34.00319 133.56335,35.14082 133.56335,36.02568 135.99179,37.16333 135.99179,38.04817 138.42021,39.05942 138.42021,39.94426 140.84863,40.8291 140.84863,41.84035 143.27705,42.85161 143.27705,43.73643 145.70549,44.62128 145.70549,45.50615 148.13391,46.51736 148.13391,47.40222 150.56233,48.41345 150.56233,49.29832 152.99075,50.30954 152.99075,51.06798 155.41919,51.95284 155.41919,52.96408 157.84761,53.8489 157.84761,54.73376 160.27603,55.61862 160.27603,56.50345 162.70445,57.26187 162.70445,58.02032 165.13289,58.90515 165.13289,59.66359 167.56131,60.54843 167.56131,61.30688 169.98973,62.19171 172.41815,63.07655 172.41815,63.70859 174.84659,64.71983 174.84659,65.47826 177.27501,67.12155 177.27501,68.1328 179.70343,68.89124 179.70343,69.52327 182.13185,70.5345 182.13185,71.29294 184.56029,72.17778 184.56029,72.93623 186.98871,73.82106 186.98871,74.7059 189.41713,75.59073 189.41713,76.4756 191.84555,77.36043 191.84555,78.37169 194.27399,79.13011 194.27399,80.01495 196.70241,80.89981 196.70241,81.78464 199.13083,82.66948 199.13083,83.42793 201.55925,84.31276 201.55925,85.0712 203.98769,85.82964 203.98769,86.71446 206.4161,87.4729 206.4161,88.35776 208.84453,89.1162 208.84453,90.00102 211.27295,90.75945 211.27295,91.5179 213.70139,92.40274 213.70139,93.16118 216.1298,94.04602 216.1298,94.80447 218.55823,95.56288 218.55823,96.44772 220.98665,97.07976 220.98665,97.96461 223.41508,98.72304 223.41508,99.60786 225.8435,100.36632 225.8435,100.99835 228.27193,101.88318 228.27193,102.64162 230.70035,103.52647 230.70035,104.1585 233.12878,105.04333 233.12878,105.80177 235.5572,106.4338 235.5572,107.31865 237.98563,107.95067 237.98563,108.83551 240.41405,109.46754 240.41405,110.35239 242.84248,111.11082 242.84248,111.86926 245.2709,112.6277 245.2709,113.38614 247.69933,114.14456 247.69933,114.903 250.12775,115.53503 252.55618,116.41988 252.55618,117.0519 254.9846,117.93674 254.9846,118.56877 257.41302,119.45363 257.41302,120.21205 259.84145,120.84407 259.84145,121.72893 262.26988,123.2458 262.26988,123.87784 264.6983,124.76268 264.6983,125.3947 267.12672,126.15312 267.12672,126.91156 269.55515,127.67003 269.55515,128.42844 271.98358,129.18687 271.98358,129.9453 274.412,130.70375 274.412,131.33578 276.84042,132.22061 276.84042,132.85265 279.26884,133.73749 279.26884,134.49593 281.69728,135.12796 281.69728,136.01279 284.1257,136.64484 284.1257,137.52966 286.55412,138.1617 286.55412,139.04655 288.98254,139.67859 288.98254,140.43701 291.41098,141.32184 291.41098,141.95387 293.8394,142.83875 293.8394,143.47076 296.26782,144.35559 296.26782,145.11401 298.69624,145.11401 298.69624,144.98763 301.12468,144.73482 301.12468,144.73482 303.5531,144.6084 303.5531,144.35559 305.98152,144.22919 305.98152,144.1028 308.40994,143.97638 308.40994,143.84996 310.83838,143.59715 310.83838,143.47076 313.2668,143.34435 313.2668,143.21794 315.69522,143.09154 315.69522,142.83875"
           style="fill:none;stroke:#69b3ff;stroke-width:0.39850000000000002;stroke-linecap:butt;stroke-linejoin:miter;stroke-miterlimit:10;stroke-opacity:1;stroke-dasharray:none"
           id="path8086"
           inkscape:connector-curvature="0" /></g></g><g
       id="g11985"
       style="fill:#ffffff;fill-opacity:1"><g
         transform="translate(-24.018757,148.47016)"
         id="g7902"
         style="fill:#ffffff;fill-opacity:1"><g
           transform="translate(91.682,-16.858)"
           id="g7904"
           style="fill:#ffffff;fill-opacity:1"><g
             id="g7906"
             style="fill:#ffffff;fill-opacity:1"><g
               transform="translate(-337.569,-349.807)"
               id="g7908"
               style="fill:#ffffff;fill-opacity:1"><text
                 id="text7910"
                 transform="matrix(1,0,0,-1,337.569,349.807)"
                 style="fill:#ffffff;fill-opacity:1"><tspan
                   id="tspan7912"
                   sodipodi:role="line"
                   y="0"
                   x="0 5.4545498"
                   style="font-size:10.90909957999999946px;font-variant:normal;font-weight:normal;writing-mode:lr-tb;fill:#ffffff;fill-opacity:1;fill-rule:nonzero;stroke:none;font-family:CMR10;-inkscape-font-specification:CMR10">40</tspan></text>
<g
                 transform="translate(337.569,349.807)"
                 id="g7914"
                 style="fill:#ffffff;fill-opacity:1" /></g></g><g
             transform="translate(-91.682,16.858)"
             id="g7916"
             style="fill:#ffffff;fill-opacity:1" /></g></g><g
         transform="translate(-24.018757,148.47016)"
         id="g7918"
         style="fill:#ffffff;fill-opacity:1"><g
           transform="translate(140.25,-16.858)"
           id="g7920"
           style="fill:#ffffff;fill-opacity:1"><g
             id="g7922"
             style="fill:#ffffff;fill-opacity:1"><g
               transform="translate(-386.137,-349.807)"
               id="g7924"
               style="fill:#ffffff;fill-opacity:1"><text
                 id="text7926"
                 transform="matrix(1,0,0,-1,386.137,349.807)"
                 style="fill:#ffffff;fill-opacity:1"><tspan
                   id="tspan7928"
                   sodipodi:role="line"
                   y="0"
                   x="0 5.4545498"
                   style="font-size:10.90909957999999946px;font-variant:normal;font-weight:normal;writing-mode:lr-tb;fill:#ffffff;fill-opacity:1;fill-rule:nonzero;stroke:none;font-family:CMR10;-inkscape-font-specification:CMR10">60</tspan></text>
<g
                 transform="translate(386.137,349.807)"
                 id="g7930"
                 style="fill:#ffffff;fill-opacity:1" /></g></g><g
             transform="translate(-140.25,16.858)"
             id="g7932"
             style="fill:#ffffff;fill-opacity:1" /></g></g><g
         transform="translate(-24.018757,148.47016)"
         id="g7934"
         style="fill:#ffffff;fill-opacity:1"><g
           transform="translate(188.817,-16.858)"
           id="g7936"
           style="fill:#ffffff;fill-opacity:1"><g
             id="g7938"
             style="fill:#ffffff;fill-opacity:1"><g
               transform="translate(-434.704,-349.807)"
               id="g7940"
               style="fill:#ffffff;fill-opacity:1"><text
                 id="text7942"
                 transform="matrix(1,0,0,-1,434.704,349.807)"
                 style="fill:#ffffff;fill-opacity:1"><tspan
                   id="tspan7944"
                   sodipodi:role="line"
                   y="0"
                   x="0 5.4545498"
                   style="font-size:10.90909957999999946px;font-variant:normal;font-weight:normal;writing-mode:lr-tb;fill:#ffffff;fill-opacity:1;fill-rule:nonzero;stroke:none;font-family:CMR10;-inkscape-font-specification:CMR10">80</tspan></text>
<g
                 transform="translate(434.704,349.807)"
                 id="g7946"
                 style="fill:#ffffff;fill-opacity:1" /></g></g><g
             transform="translate(-188.817,16.858)"
             id="g7948"
             style="fill:#ffffff;fill-opacity:1" /></g></g><g
         transform="translate(-24.018757,148.47016)"
         id="g7950"
         style="fill:#ffffff;fill-opacity:1"><g
           transform="translate(234.658,-16.858)"
           id="g7952"
           style="fill:#ffffff;fill-opacity:1"><g
             id="g7954"
             style="fill:#ffffff;fill-opacity:1"><g
               transform="translate(-480.545,-349.807)"
               id="g7956"
               style="fill:#ffffff;fill-opacity:1"><text
                 id="text7958"
                 transform="matrix(1,0,0,-1,480.545,349.807)"
                 style="fill:#ffffff;fill-opacity:1"><tspan
                   id="tspan7960"
                   sodipodi:role="line"
                   y="0"
                   x="0 5.4545498 10.9091"
                   style="font-size:10.90909957999999946px;font-variant:normal;font-weight:normal;writing-mode:lr-tb;fill:#ffffff;fill-opacity:1;fill-rule:nonzero;stroke:none;font-family:CMR10;-inkscape-font-specification:CMR10">100</tspan></text>
<g
                 transform="translate(480.545,349.807)"
                 id="g7962"
                 style="fill:#ffffff;fill-opacity:1" /></g></g><g
             transform="translate(-234.658,16.858)"
             id="g7964"
             style="fill:#ffffff;fill-opacity:1" /></g></g><g
         transform="translate(-24.018757,148.47016)"
         id="g7966"
         style="fill:#ffffff;fill-opacity:1"><g
           transform="translate(283.226,-16.858)"
           id="g7968"
           style="fill:#ffffff;fill-opacity:1"><g
             id="g7970"
             style="fill:#ffffff;fill-opacity:1"><g
               transform="translate(-529.113,-349.807)"
               id="g7972"
               style="fill:#ffffff;fill-opacity:1"><text
                 id="text7974"
                 transform="matrix(1,0,0,-1,529.113,349.807)"
                 style="fill:#ffffff;fill-opacity:1"><tspan
                   id="tspan7976"
                   sodipodi:role="line"
                   y="0"
                   x="0 5.4545498 10.9091"
                   style="font-size:10.90909957999999946px;font-variant:normal;font-weight:normal;writing-mode:lr-tb;fill:#ffffff;fill-opacity:1;fill-rule:nonzero;stroke:none;font-family:CMR10;-inkscape-font-specification:CMR10">120</tspan></text>
<g
                 transform="translate(529.113,349.807)"
                 id="g7978"
                 style="fill:#ffffff;fill-opacity:1" /></g></g><g
             transform="translate(-283.226,16.858)"
             id="g7980"
             style="fill:#ffffff;fill-opacity:1" /></g></g><g
         transform="translate(-24.018757,148.47016)"
         id="g7982"
         style="fill:#ffffff;fill-opacity:1"><g
           transform="translate(87.846,0.782)"
           id="g7984"
           style="fill:#ffffff;fill-opacity:1"><g
             id="g7986"
             style="fill:#ffffff;fill-opacity:1"><g
               transform="translate(-333.733,-367.447)"
               id="g7988"
               style="fill:#ffffff;fill-opacity:1"><text
                 id="text7990"
                 transform="matrix(1,0,0,-1,333.733,367.447)"
                 style="fill:#ffffff;fill-opacity:1"><tspan
                   id="tspan7992"
                   y="0"
                   x="0"
                   style="font-size:10.90909957999999946px;font-variant:normal;font-weight:normal;writing-mode:lr-tb;fill:#ffffff;fill-opacity:1;fill-rule:nonzero;stroke:none;font-family:CMR10;-inkscape-font-specification:CMR10">2</tspan></text>
<g
                 transform="translate(333.733,367.447)"
                 id="g7994"
                 style="fill:#ffffff;fill-opacity:1" /></g></g><g
             transform="translate(-87.846,-0.782)"
             id="g7996"
             style="fill:#ffffff;fill-opacity:1" /></g></g><g
         transform="translate(-24.018757,148.47016)"
         id="g7998"
         style="fill:#ffffff;fill-opacity:1"><g
           transform="translate(87.846,26.063)"
           id="g8000"
           style="fill:#ffffff;fill-opacity:1"><g
             id="g8002"
             style="fill:#ffffff;fill-opacity:1"><g
               transform="translate(-333.733,-392.728)"
               id="g8004"
               style="fill:#ffffff;fill-opacity:1"><text
                 id="text8006"
                 transform="matrix(1,0,0,-1,333.733,392.728)"
                 style="fill:#ffffff;fill-opacity:1"><tspan
                   id="tspan8008"
                   y="0"
                   x="0"
                   style="font-size:10.90909957999999946px;font-variant:normal;font-weight:normal;writing-mode:lr-tb;fill:#ffffff;fill-opacity:1;fill-rule:nonzero;stroke:none;font-family:CMR10;-inkscape-font-specification:CMR10">4</tspan></text>
<g
                 transform="translate(333.733,392.728)"
                 id="g8010"
                 style="fill:#ffffff;fill-opacity:1" /></g></g><g
             transform="translate(-87.846,-26.063)"
             id="g8012"
             style="fill:#ffffff;fill-opacity:1" /></g></g><g
         transform="translate(-24.018757,148.47016)"
         id="g8014"
         style="fill:#ffffff;fill-opacity:1"><g
           transform="translate(87.846,51.344)"
           id="g8016"
           style="fill:#ffffff;fill-opacity:1"><g
             id="g8018"
             style="fill:#ffffff;fill-opacity:1"><g
               transform="translate(-333.733,-418.009)"
               id="g8020"
               style="fill:#ffffff;fill-opacity:1"><text
                 id="text8022"
                 transform="matrix(1,0,0,-1,333.733,418.009)"
                 style="fill:#ffffff;fill-opacity:1"><tspan
                   id="tspan8024"
                   y="0"
                   x="0"
                   style="font-size:10.90909957999999946px;font-variant:normal;font-weight:normal;writing-mode:lr-tb;fill:#ffffff;fill-opacity:1;fill-rule:nonzero;stroke:none;font-family:CMR10;-inkscape-font-specification:CMR10">6</tspan></text>
<g
                 transform="translate(333.733,418.009)"
                 id="g8026"
                 style="fill:#ffffff;fill-opacity:1" /></g></g><g
             transform="translate(-87.846,-51.344)"
             id="g8028"
             style="fill:#ffffff;fill-opacity:1" /></g></g><g
         transform="translate(-24.018757,148.47016)"
         id="g8030"
         style="fill:#ffffff;fill-opacity:1"><g
           transform="translate(87.846,76.625)"
           id="g8032"
           style="fill:#ffffff;fill-opacity:1"><g
             id="g8034"
             style="fill:#ffffff;fill-opacity:1"><g
               transform="translate(-333.733,-443.29)"
               id="g8036"
               style="fill:#ffffff;fill-opacity:1"><text
                 id="text8038"
                 transform="matrix(1,0,0,-1,333.733,443.29)"
                 style="fill:#ffffff;fill-opacity:1"><tspan
                   id="tspan8040"
                   y="0"
                   x="0"
                   style="font-size:10.90909957999999946px;font-variant:normal;font-weight:normal;writing-mode:lr-tb;fill:#ffffff;fill-opacity:1;fill-rule:nonzero;stroke:none;font-family:CMR10;-inkscape-font-specification:CMR10">8</tspan></text>
<g
                 transform="translate(333.733,443.29)"
                 id="g8042"
                 style="fill:#ffffff;fill-opacity:1" /></g></g><g
             transform="translate(-87.846,-76.625)"
             id="g8044"
             style="fill:#ffffff;fill-opacity:1" /></g></g><g
         transform="translate(-24.018757,148.47016)"
         id="g8046"
         style="fill:#ffffff;fill-opacity:1"><g
           transform="translate(82.392,101.906)"
           id="g8048"
           style="fill:#ffffff;fill-opacity:1"><g
             id="g8050"
             style="fill:#ffffff;fill-opacity:1"><g
               transform="translate(-328.279,-468.571)"
               id="g8052"
               style="fill:#ffffff;fill-opacity:1"><text
                 id="text8054"
                 transform="matrix(1,0,0,-1,328.279,468.571)"
                 style="fill:#ffffff;fill-opacity:1"><tspan
                   id="tspan8056"
                   sodipodi:role="line"
                   y="0"
                   x="0 5.4545498"
                   style="font-size:10.90909957999999946px;font-variant:normal;font-weight:normal;writing-mode:lr-tb;fill:#ffffff;fill-opacity:1;fill-rule:nonzero;stroke:none;font-family:CMR10;-inkscape-font-specification:CMR10">10</tspan></text>
<g
                 transform="translate(328.279,468.571)"
                 id="g8058"
                 style="fill:#ffffff;fill-opacity:1" /></g></g><g
             transform="translate(-82.392,-101.906)"
             id="g8060"
             style="fill:#ffffff;fill-opacity:1" /></g></g><g
         transform="translate(-24.018757,148.47016)"
         id="g8062"
         style="fill:#ffffff;fill-opacity:1"><g
           transform="translate(82.392,127.187)"
           id="g8064"
           style="fill:#ffffff;fill-opacity:1"><g
             id="g8066"
             style="fill:#ffffff;fill-opacity:1"><g
               transform="translate(-328.279,-493.852)"
               id="g8068"
               style="fill:#ffffff;fill-opacity:1"><text
                 id="text8070"
                 transform="matrix(1,0,0,-1,328.279,493.852)"
                 style="fill:#ffffff;fill-opacity:1"><tspan
                   id="tspan8072"
                   sodipodi:role="line"
                   y="0"
                   x="0 5.4545498"
                   style="font-size:10.90909957999999946px;font-variant:normal;font-weight:normal;writing-mode:lr-tb;fill:#ffffff;fill-opacity:1;fill-rule:nonzero;stroke:none;font-family:CMR10;-inkscape-font-specification:CMR10">12</tspan></text>
<g
                 transform="translate(328.279,493.852)"
                 id="g8074"
                 style="fill:#ffffff;fill-opacity:1" /></g></g><g
             transform="translate(-82.392,-127.187)"
             id="g8076"
             style="fill:#ffffff;fill-opacity:1" /></g></g><g
         transform="translate(-24.018757,148.47016)"
         id="g8088"
         style="fill:#ffffff;fill-opacity:1"><g
           id="g8090"
           transform="translate(173.635,-32.511)"
           style="fill:#ffffff;fill-opacity:1"><g
             id="g8092"
             style="fill:#ffffff;fill-opacity:1"><g
               id="g8094"
               transform="translate(-419.522,-334.154)"
               style="fill:#ffffff;fill-opacity:1"><text
                 transform="matrix(1,0,0,-1,419.522,334.154)"
                 id="text8096"
                 style="fill:#ffffff;fill-opacity:1"><tspan
                   style="font-size:10.90909957999999946px;font-variant:normal;font-weight:normal;writing-mode:lr-tb;fill:#ffffff;fill-opacity:1;fill-rule:nonzero;stroke:none;font-family:CMR10;-inkscape-font-specification:CMR10"
                   x="0 7.878552 10.9091 19.999653 28.480387 32.722935 37.025486"
                   y="0"
                   sodipodi:role="line"
                   id="tspan8098">Time(s)</tspan></text>
<g
                 id="g8100"
                 transform="translate(419.522,334.154)"
                 style="fill:#ffffff;fill-opacity:1" /></g></g><g
             id="g8102"
             transform="translate(-173.635,32.511)"
             style="fill:#ffffff;fill-opacity:1" /></g></g><g
         transform="translate(-24.018757,148.47016)"
         id="g8104"
         style="fill:#ffffff;fill-opacity:1"><g
           id="g8106"
           transform="matrix(0,1,-1,0,72.193,50.932)"
           style="fill:#ffffff;fill-opacity:1"><g
             id="g8108"
             style="fill:#ffffff;fill-opacity:1"><g
               id="g8110"
               transform="translate(-318.08,-417.597)"
               style="fill:#ffffff;fill-opacity:1"><text
                 transform="matrix(1,0,0,-1,318.08,417.597)"
                 id="text8112"
                 style="fill:#ffffff;fill-opacity:1"><tspan
                   style="font-size:10.90909957999999946px;font-variant:normal;font-weight:normal;writing-mode:lr-tb;fill:#ffffff;fill-opacity:1;fill-rule:nonzero;stroke:none;font-family:CMR10;-inkscape-font-specification:CMR10"
                   x="0 10.000372 15.454922 19.757471 27.692751 31.935299 37.693123 43.3004"
                   y="0"
                   sodipodi:role="line"
                   id="tspan8114">Mass(kg)</tspan></text>
<g
                 id="g8116"
                 transform="translate(318.08,417.597)"
                 style="fill:#ffffff;fill-opacity:1" /></g></g><g
             id="g8118"
             transform="translate(-72.193,-50.932)"
             style="fill:#ffffff;fill-opacity:1" /></g></g></g><g
       id="g8124"
       transform="translate(73.117243,142.47716)" /><g
       id="g8126"
       transform="translate(73.117243,142.47716)" /></g></svg>