M48
INCH,TZ
T1C0.013
T2C0.126
%
G90
G05
T1
X5.25Y-3.85
X5.3Y-3.45
X5.3Y-4.25
X5.3Y-4.575
X5.35Y-3.875
X5.5Y-3.35
X5.5Y-3.55
X5.5Y-4.15
X5.5Y-4.375
X5.5Y-4.425
X5.525Y-3.575
X5.525Y-4.175
X5.55Y-4.45
X5.55Y-4.6
X5.6Y-3.325
X5.6Y-3.8
X5.6Y-4.025
X5.6Y-4.125
X5.65Y-3.5
X5.875Y-4.6
X5.875Y-4.65
X5.9Y-4.575
X5.9Y-4.625
X5.925Y-3.75
X5.925Y-3.8
X5.925Y-4.15
X5.925Y-4.2
X5.95Y-3.775
X5.95Y-3.85
X5.95Y-4.175
X5.95Y-4.25
X5.95Y-4.7
X5.975Y-3.325
X5.975Y-3.375
X5.975Y-3.425
X5.975Y-3.475
X5.975Y-3.65
X5.975Y-3.875
X5.975Y-4.225
X5.975Y-4.275
X5.975Y-4.375
X5.975Y-4.55
X6.Y-3.35
X6.Y-3.4
X6.Y-3.45
X6.Y-3.5
X6.Y-3.625
X6.Y-4.525
X6.025Y-3.6
X6.025Y-4.05
X6.025Y-4.5
X6.1Y-3.975
X6.1Y-4.35
X6.175Y-3.875
X6.2Y-3.975
X6.375Y-3.95
X6.4Y-3.5
X6.4Y-3.85
X6.4Y-4.
X6.45Y-3.35
X6.45Y-3.65
X6.45Y-3.8
X6.45Y-4.6
X6.5Y-3.35
X6.5Y-3.55
X6.5Y-4.2
X6.5Y-4.45
X6.61Y-4.06
X6.675Y-4.175
X6.675Y-4.375
X6.7Y-3.45
X6.7Y-3.625
X6.7Y-4.35
X6.7Y-4.425
X6.7Y-4.575
T2
X5.15Y-3.15
X5.15Y-4.85
X6.85Y-3.15
X6.85Y-4.85
T0
M30
