G04 #@! TF.FileFunction,Legend,Top*
%FSLAX46Y46*%
G04 Gerber Fmt 4.6, Leading zero omitted, Abs format (unit mm)*
G04 Created by KiCad (PCBNEW (2015-11-29 BZR 6336)-product) date vrijdag 15 april 2016 20:54:22*
%MOMM*%
G01*
G04 APERTURE LIST*
%ADD10C,0.100000*%
%ADD11C,0.300000*%
%ADD12C,0.200000*%
%ADD13C,0.150000*%
%ADD14C,0.010000*%
G04 APERTURE END LIST*
D10*
D11*
X144328572Y-123868571D02*
X143828572Y-123154286D01*
X143471429Y-123868571D02*
X143471429Y-122368571D01*
X144042857Y-122368571D01*
X144185715Y-122440000D01*
X144257143Y-122511429D01*
X144328572Y-122654286D01*
X144328572Y-122868571D01*
X144257143Y-123011429D01*
X144185715Y-123082857D01*
X144042857Y-123154286D01*
X143471429Y-123154286D01*
X144971429Y-123868571D02*
X144971429Y-122368571D01*
X145614286Y-123797143D02*
X145828572Y-123868571D01*
X146185715Y-123868571D01*
X146328572Y-123797143D01*
X146400001Y-123725714D01*
X146471429Y-123582857D01*
X146471429Y-123440000D01*
X146400001Y-123297143D01*
X146328572Y-123225714D01*
X146185715Y-123154286D01*
X145900001Y-123082857D01*
X145757143Y-123011429D01*
X145685715Y-122940000D01*
X145614286Y-122797143D01*
X145614286Y-122654286D01*
X145685715Y-122511429D01*
X145757143Y-122440000D01*
X145900001Y-122368571D01*
X146257143Y-122368571D01*
X146471429Y-122440000D01*
X147042857Y-123440000D02*
X147757143Y-123440000D01*
X146900000Y-123868571D02*
X147400000Y-122368571D01*
X147900000Y-123868571D01*
X149542857Y-123082857D02*
X150042857Y-123082857D01*
X150257143Y-123868571D02*
X149542857Y-123868571D01*
X149542857Y-122368571D01*
X150257143Y-122368571D01*
X151614286Y-123868571D02*
X150900000Y-123868571D01*
X150900000Y-122368571D01*
X152114286Y-123082857D02*
X152614286Y-123082857D01*
X152828572Y-123868571D02*
X152114286Y-123868571D01*
X152114286Y-122368571D01*
X152828572Y-122368571D01*
X154328572Y-123725714D02*
X154257143Y-123797143D01*
X154042857Y-123868571D01*
X153900000Y-123868571D01*
X153685715Y-123797143D01*
X153542857Y-123654286D01*
X153471429Y-123511429D01*
X153400000Y-123225714D01*
X153400000Y-123011429D01*
X153471429Y-122725714D01*
X153542857Y-122582857D01*
X153685715Y-122440000D01*
X153900000Y-122368571D01*
X154042857Y-122368571D01*
X154257143Y-122440000D01*
X154328572Y-122511429D01*
X154757143Y-122368571D02*
X155614286Y-122368571D01*
X155185715Y-123868571D02*
X155185715Y-122368571D01*
X156971429Y-123868571D02*
X156471429Y-123154286D01*
X156114286Y-123868571D02*
X156114286Y-122368571D01*
X156685714Y-122368571D01*
X156828572Y-122440000D01*
X156900000Y-122511429D01*
X156971429Y-122654286D01*
X156971429Y-122868571D01*
X156900000Y-123011429D01*
X156828572Y-123082857D01*
X156685714Y-123154286D01*
X156114286Y-123154286D01*
X157900000Y-122368571D02*
X158185714Y-122368571D01*
X158328572Y-122440000D01*
X158471429Y-122582857D01*
X158542857Y-122868571D01*
X158542857Y-123368571D01*
X158471429Y-123654286D01*
X158328572Y-123797143D01*
X158185714Y-123868571D01*
X157900000Y-123868571D01*
X157757143Y-123797143D01*
X157614286Y-123654286D01*
X157542857Y-123368571D01*
X157542857Y-122868571D01*
X157614286Y-122582857D01*
X157757143Y-122440000D01*
X157900000Y-122368571D01*
X159185715Y-123868571D02*
X159185715Y-122368571D01*
X159542858Y-122368571D01*
X159757143Y-122440000D01*
X159900001Y-122582857D01*
X159971429Y-122725714D01*
X160042858Y-123011429D01*
X160042858Y-123225714D01*
X159971429Y-123511429D01*
X159900001Y-123654286D01*
X159757143Y-123797143D01*
X159542858Y-123868571D01*
X159185715Y-123868571D01*
X160685715Y-123082857D02*
X161185715Y-123082857D01*
X161400001Y-123868571D02*
X160685715Y-123868571D01*
X160685715Y-122368571D01*
X161400001Y-122368571D01*
D12*
X173990000Y-124460000D02*
X130810000Y-124460000D01*
X175260000Y-80010000D02*
X175260000Y-123190000D01*
X130810000Y-78740000D02*
X173990000Y-78740000D01*
X129540000Y-123190000D02*
X129540000Y-80010000D01*
D13*
X158685000Y-82295000D02*
X158685000Y-82660000D01*
X166435000Y-82295000D02*
X166435000Y-82660000D01*
X166435000Y-98045000D02*
X166435000Y-97680000D01*
X158685000Y-98045000D02*
X158685000Y-97680000D01*
X158685000Y-82295000D02*
X166435000Y-82295000D01*
X158685000Y-98045000D02*
X166435000Y-98045000D01*
X158685000Y-82660000D02*
X156860000Y-82660000D01*
X158685000Y-105155000D02*
X158685000Y-105520000D01*
X166435000Y-105155000D02*
X166435000Y-105520000D01*
X166435000Y-120905000D02*
X166435000Y-120540000D01*
X158685000Y-120905000D02*
X158685000Y-120540000D01*
X158685000Y-105155000D02*
X166435000Y-105155000D01*
X158685000Y-120905000D02*
X166435000Y-120905000D01*
X158685000Y-105520000D02*
X156860000Y-105520000D01*
X138365000Y-105155000D02*
X138365000Y-105520000D01*
X146115000Y-105155000D02*
X146115000Y-105520000D01*
X146115000Y-120905000D02*
X146115000Y-120540000D01*
X138365000Y-120905000D02*
X138365000Y-120540000D01*
X138365000Y-105155000D02*
X146115000Y-105155000D01*
X138365000Y-120905000D02*
X146115000Y-120905000D01*
X138365000Y-105520000D02*
X136540000Y-105520000D01*
X138365000Y-82295000D02*
X138365000Y-82660000D01*
X146115000Y-82295000D02*
X146115000Y-82660000D01*
X146115000Y-98045000D02*
X146115000Y-97680000D01*
X138365000Y-98045000D02*
X138365000Y-97680000D01*
X138365000Y-82295000D02*
X146115000Y-82295000D01*
X138365000Y-98045000D02*
X146115000Y-98045000D01*
X138365000Y-82660000D02*
X136540000Y-82660000D01*
D14*
G36*
X148313775Y-79141750D02*
X148388870Y-79143196D01*
X148458009Y-79145494D01*
X148523105Y-79148871D01*
X148586070Y-79153553D01*
X148648815Y-79159768D01*
X148713254Y-79167742D01*
X148781298Y-79177701D01*
X148854860Y-79189872D01*
X148935852Y-79204482D01*
X149026186Y-79221757D01*
X149082125Y-79232791D01*
X149187954Y-79254362D01*
X149293044Y-79276868D01*
X149398197Y-79300541D01*
X149504213Y-79325613D01*
X149611894Y-79352314D01*
X149722043Y-79380878D01*
X149835461Y-79411536D01*
X149952950Y-79444519D01*
X150075311Y-79480060D01*
X150203347Y-79518389D01*
X150337859Y-79559739D01*
X150479648Y-79604342D01*
X150629517Y-79652429D01*
X150788268Y-79704232D01*
X150956702Y-79759983D01*
X151135620Y-79819913D01*
X151267552Y-79864482D01*
X151396298Y-79908043D01*
X151513757Y-79947626D01*
X151620628Y-79983446D01*
X151717613Y-80015716D01*
X151805413Y-80044649D01*
X151884728Y-80070459D01*
X151956259Y-80093359D01*
X152020707Y-80113562D01*
X152078772Y-80131283D01*
X152131156Y-80146735D01*
X152178559Y-80160131D01*
X152221683Y-80171684D01*
X152261227Y-80181609D01*
X152297892Y-80190118D01*
X152332380Y-80197425D01*
X152365392Y-80203744D01*
X152397627Y-80209288D01*
X152401484Y-80209913D01*
X152460738Y-80219448D01*
X152597056Y-80175687D01*
X152735712Y-80132834D01*
X152865817Y-80096168D01*
X152989601Y-80065165D01*
X153109293Y-80039297D01*
X153227124Y-80018039D01*
X153329197Y-80002973D01*
X153380798Y-79997248D01*
X153440177Y-79992556D01*
X153504446Y-79988971D01*
X153570716Y-79986571D01*
X153636098Y-79985431D01*
X153697702Y-79985629D01*
X153752640Y-79987239D01*
X153798023Y-79990339D01*
X153800175Y-79990553D01*
X153923794Y-80007648D01*
X154037739Y-80032869D01*
X154142132Y-80066257D01*
X154237094Y-80107856D01*
X154322747Y-80157707D01*
X154363678Y-80186928D01*
X154403425Y-80217315D01*
X154832050Y-80076181D01*
X154998368Y-80021496D01*
X155153362Y-79970710D01*
X155297725Y-79923617D01*
X155432151Y-79880007D01*
X155557332Y-79839673D01*
X155673961Y-79802405D01*
X155782732Y-79767997D01*
X155884338Y-79736239D01*
X155979472Y-79706924D01*
X156068827Y-79679844D01*
X156153096Y-79654790D01*
X156232973Y-79631553D01*
X156309150Y-79609927D01*
X156382321Y-79589702D01*
X156453179Y-79570671D01*
X156522417Y-79552625D01*
X156590728Y-79535356D01*
X156658805Y-79518656D01*
X156727342Y-79502317D01*
X156795102Y-79486573D01*
X156918799Y-79459039D01*
X157045412Y-79432516D01*
X157173338Y-79407268D01*
X157300973Y-79383562D01*
X157426713Y-79361663D01*
X157548956Y-79341836D01*
X157666097Y-79324348D01*
X157776534Y-79309464D01*
X157878663Y-79297450D01*
X157970880Y-79288570D01*
X158007050Y-79285785D01*
X158125439Y-79281590D01*
X158254012Y-79284924D01*
X158392732Y-79295781D01*
X158541559Y-79314153D01*
X158700455Y-79340033D01*
X158869383Y-79373415D01*
X159048304Y-79414291D01*
X159237180Y-79462655D01*
X159435973Y-79518499D01*
X159644644Y-79581817D01*
X159670750Y-79590044D01*
X159748701Y-79614883D01*
X159825823Y-79639834D01*
X159902793Y-79665145D01*
X159980288Y-79691066D01*
X160058984Y-79717847D01*
X160139558Y-79745737D01*
X160222687Y-79774985D01*
X160309047Y-79805841D01*
X160399316Y-79838553D01*
X160494170Y-79873372D01*
X160594285Y-79910546D01*
X160700339Y-79950325D01*
X160813009Y-79992959D01*
X160932971Y-80038696D01*
X161060901Y-80087787D01*
X161197477Y-80140479D01*
X161343375Y-80197024D01*
X161499273Y-80257669D01*
X161665846Y-80322665D01*
X161775775Y-80365646D01*
X161952165Y-80434522D01*
X162117549Y-80498805D01*
X162272653Y-80558761D01*
X162418201Y-80614659D01*
X162554922Y-80666764D01*
X162683541Y-80715344D01*
X162804783Y-80760667D01*
X162919376Y-80803000D01*
X163028046Y-80842609D01*
X163131518Y-80879763D01*
X163230519Y-80914729D01*
X163325774Y-80947773D01*
X163418011Y-80979163D01*
X163507955Y-81009166D01*
X163596332Y-81038050D01*
X163648124Y-81054703D01*
X163703731Y-81072694D01*
X163747542Y-81087367D01*
X163779978Y-81098876D01*
X163801459Y-81107379D01*
X163812404Y-81113029D01*
X163813234Y-81115985D01*
X163813224Y-81115989D01*
X163802107Y-81118856D01*
X163780290Y-81123128D01*
X163749657Y-81128512D01*
X163712092Y-81134715D01*
X163669482Y-81141443D01*
X163623711Y-81148404D01*
X163576664Y-81155304D01*
X163530225Y-81161850D01*
X163486281Y-81167748D01*
X163455350Y-81171662D01*
X163211230Y-81198069D01*
X162957535Y-81218827D01*
X162696100Y-81233853D01*
X162428764Y-81243068D01*
X162157364Y-81246389D01*
X161883736Y-81243737D01*
X161841315Y-81242787D01*
X161697971Y-81238947D01*
X161566529Y-81234571D01*
X161446198Y-81229567D01*
X161336189Y-81223842D01*
X161235711Y-81217303D01*
X161143974Y-81209860D01*
X161060187Y-81201418D01*
X160983560Y-81191886D01*
X160913303Y-81181172D01*
X160848626Y-81169183D01*
X160788737Y-81155827D01*
X160732847Y-81141011D01*
X160680166Y-81124643D01*
X160629903Y-81106631D01*
X160610243Y-81098923D01*
X160571232Y-81082559D01*
X160533498Y-81065119D01*
X160495538Y-81045707D01*
X160455851Y-81023427D01*
X160412934Y-80997383D01*
X160365285Y-80966679D01*
X160311402Y-80930418D01*
X160249782Y-80887704D01*
X160214470Y-80862848D01*
X160139565Y-80810723D01*
X160072555Y-80766104D01*
X160011712Y-80728214D01*
X159955305Y-80696275D01*
X159901605Y-80669508D01*
X159848882Y-80647135D01*
X159795407Y-80628378D01*
X159739449Y-80612459D01*
X159679280Y-80598599D01*
X159613169Y-80586021D01*
X159590585Y-80582158D01*
X159511846Y-80569977D01*
X159427646Y-80558915D01*
X159337179Y-80548918D01*
X159239638Y-80539929D01*
X159134217Y-80531892D01*
X159020109Y-80524751D01*
X158896509Y-80518451D01*
X158762609Y-80512934D01*
X158617604Y-80508146D01*
X158467425Y-80504187D01*
X158256904Y-80500870D01*
X158040519Y-80500592D01*
X157820038Y-80503262D01*
X157597229Y-80508789D01*
X157373860Y-80517081D01*
X157151701Y-80528047D01*
X156932518Y-80541593D01*
X156718080Y-80557630D01*
X156510156Y-80576065D01*
X156310513Y-80596807D01*
X156120919Y-80619764D01*
X156048075Y-80629576D01*
X155802538Y-80667171D01*
X155567615Y-80710327D01*
X155342394Y-80759265D01*
X155125967Y-80814202D01*
X154917424Y-80875360D01*
X154715857Y-80942957D01*
X154650671Y-80966731D01*
X154523267Y-81014143D01*
X154499330Y-81062934D01*
X154451680Y-81156323D01*
X154398444Y-81254054D01*
X154341285Y-81353374D01*
X154281868Y-81451526D01*
X154221858Y-81545755D01*
X154162919Y-81633306D01*
X154111174Y-81705450D01*
X153997868Y-81849496D01*
X153880616Y-81981883D01*
X153758562Y-82103269D01*
X153630853Y-82214311D01*
X153496634Y-82315668D01*
X153355052Y-82407998D01*
X153205253Y-82491958D01*
X153046382Y-82568208D01*
X152926086Y-82618627D01*
X152877216Y-82637709D01*
X152828934Y-82655968D01*
X152779769Y-82673897D01*
X152728247Y-82691989D01*
X152672897Y-82710737D01*
X152612247Y-82730634D01*
X152544825Y-82752172D01*
X152469160Y-82775844D01*
X152383778Y-82802143D01*
X152317450Y-82822377D01*
X152205147Y-82856839D01*
X152104727Y-82888324D01*
X152015762Y-82916979D01*
X151937826Y-82942949D01*
X151870490Y-82966383D01*
X151813328Y-82987427D01*
X151765912Y-83006227D01*
X151727815Y-83022930D01*
X151713319Y-83029942D01*
X151671640Y-83055634D01*
X151634630Y-83087616D01*
X151605382Y-83122958D01*
X151593249Y-83143725D01*
X151585075Y-83162824D01*
X151580301Y-83181787D01*
X151578113Y-83205160D01*
X151577675Y-83230541D01*
X151577675Y-83285608D01*
X151530050Y-83292247D01*
X151412217Y-83308644D01*
X151306067Y-83323343D01*
X151210715Y-83336457D01*
X151125273Y-83348096D01*
X151048855Y-83358373D01*
X150980574Y-83367399D01*
X150919543Y-83375287D01*
X150864875Y-83382149D01*
X150815685Y-83388095D01*
X150771084Y-83393239D01*
X150730187Y-83397691D01*
X150692107Y-83401564D01*
X150655957Y-83404969D01*
X150620850Y-83408019D01*
X150596600Y-83409988D01*
X150508451Y-83416014D01*
X150421001Y-83420198D01*
X150336991Y-83422473D01*
X150259165Y-83422775D01*
X150190267Y-83421039D01*
X150171150Y-83420076D01*
X150057191Y-83410338D01*
X149952874Y-83394636D01*
X149856476Y-83372672D01*
X149802850Y-83356731D01*
X149774832Y-83346774D01*
X149743366Y-83334187D01*
X149710558Y-83319983D01*
X149678516Y-83305174D01*
X149649347Y-83290775D01*
X149625158Y-83277800D01*
X149608057Y-83267260D01*
X149600151Y-83260171D01*
X149599855Y-83259114D01*
X149605274Y-83254182D01*
X149620415Y-83244197D01*
X149643773Y-83230052D01*
X149673847Y-83212637D01*
X149709134Y-83192844D01*
X149740885Y-83175475D01*
X149840761Y-83120789D01*
X149947855Y-83060984D01*
X150058811Y-82997975D01*
X150170278Y-82933682D01*
X150278900Y-82870023D01*
X150371175Y-82815025D01*
X150511276Y-82729576D01*
X150640791Y-82648124D01*
X150759600Y-82570757D01*
X150867587Y-82497563D01*
X150964634Y-82428630D01*
X151050623Y-82364045D01*
X151125435Y-82303897D01*
X151188954Y-82248273D01*
X151241062Y-82197261D01*
X151281640Y-82150949D01*
X151304523Y-82119217D01*
X151343624Y-82048109D01*
X151372675Y-81972695D01*
X151391414Y-81894784D01*
X151399579Y-81816187D01*
X151396909Y-81738712D01*
X151383141Y-81664171D01*
X151374494Y-81635655D01*
X151344814Y-81561547D01*
X151308142Y-81494438D01*
X151263453Y-81433185D01*
X151209722Y-81376646D01*
X151145923Y-81323679D01*
X151071030Y-81273142D01*
X151024696Y-81245943D01*
X151004483Y-81235113D01*
X150974107Y-81219537D01*
X150934903Y-81199857D01*
X150888208Y-81176720D01*
X150835355Y-81150768D01*
X150777682Y-81122647D01*
X150716524Y-81093000D01*
X150653216Y-81062472D01*
X150589094Y-81031707D01*
X150525494Y-81001349D01*
X150463751Y-80972042D01*
X150405201Y-80944430D01*
X150351180Y-80919158D01*
X150303023Y-80896871D01*
X150265431Y-80879729D01*
X150043112Y-80782901D01*
X149825584Y-80695329D01*
X149613201Y-80617116D01*
X149406315Y-80548363D01*
X149205279Y-80489173D01*
X149010445Y-80439649D01*
X148822167Y-80399891D01*
X148640797Y-80370003D01*
X148466689Y-80350086D01*
X148424900Y-80346718D01*
X148373301Y-80343590D01*
X148311002Y-80340933D01*
X148239993Y-80338766D01*
X148162267Y-80337108D01*
X148079815Y-80335977D01*
X147994628Y-80335391D01*
X147908697Y-80335370D01*
X147824015Y-80335931D01*
X147742572Y-80337094D01*
X147666359Y-80338877D01*
X147647025Y-80339464D01*
X147446154Y-80347141D01*
X147247522Y-80357184D01*
X147051804Y-80369499D01*
X146859676Y-80383990D01*
X146671815Y-80400562D01*
X146488895Y-80419118D01*
X146311594Y-80439564D01*
X146140587Y-80461804D01*
X145976550Y-80485742D01*
X145820158Y-80511284D01*
X145672089Y-80538332D01*
X145533017Y-80566793D01*
X145403619Y-80596571D01*
X145284571Y-80627569D01*
X145176548Y-80659693D01*
X145080227Y-80692847D01*
X145042524Y-80707417D01*
X145027171Y-80714142D01*
X145002668Y-80725559D01*
X144971195Y-80740619D01*
X144934933Y-80758276D01*
X144896062Y-80777483D01*
X144881215Y-80784892D01*
X144780494Y-80834363D01*
X144688811Y-80877312D01*
X144604669Y-80914306D01*
X144526569Y-80945912D01*
X144453010Y-80972696D01*
X144382496Y-80995224D01*
X144313526Y-81014064D01*
X144244603Y-81029782D01*
X144220866Y-81034524D01*
X144163243Y-81045676D01*
X144114581Y-81055039D01*
X144073094Y-81062780D01*
X144036993Y-81069066D01*
X144004492Y-81074065D01*
X143973801Y-81077944D01*
X143943135Y-81080870D01*
X143910704Y-81083012D01*
X143874723Y-81084536D01*
X143833402Y-81085609D01*
X143784955Y-81086399D01*
X143727595Y-81087074D01*
X143659533Y-81087800D01*
X143650804Y-81087896D01*
X143359329Y-81087347D01*
X143059461Y-81079448D01*
X142753071Y-81064329D01*
X142442028Y-81042123D01*
X142128202Y-81012959D01*
X141813464Y-80976969D01*
X141538325Y-80939913D01*
X141493584Y-80933307D01*
X141443864Y-80925709D01*
X141390597Y-80917359D01*
X141335219Y-80908500D01*
X141279164Y-80899373D01*
X141223864Y-80890221D01*
X141170754Y-80881285D01*
X141121268Y-80872806D01*
X141076839Y-80865027D01*
X141038903Y-80858189D01*
X141008892Y-80852534D01*
X140988241Y-80848303D01*
X140978384Y-80845739D01*
X140977802Y-80845419D01*
X140977130Y-80844643D01*
X140977400Y-80843776D01*
X140979589Y-80842556D01*
X140984669Y-80840719D01*
X140993616Y-80838000D01*
X141007406Y-80834137D01*
X141027012Y-80828866D01*
X141053410Y-80821924D01*
X141087575Y-80813048D01*
X141130480Y-80801972D01*
X141183102Y-80788435D01*
X141246415Y-80772173D01*
X141293850Y-80759994D01*
X141382510Y-80737122D01*
X141474154Y-80713258D01*
X141569339Y-80688251D01*
X141668623Y-80661948D01*
X141772567Y-80634194D01*
X141881727Y-80604838D01*
X141996663Y-80573725D01*
X142117933Y-80540703D01*
X142246096Y-80505619D01*
X142381710Y-80468320D01*
X142525334Y-80428652D01*
X142677527Y-80386463D01*
X142838846Y-80341599D01*
X143009852Y-80293907D01*
X143191102Y-80243234D01*
X143383155Y-80189427D01*
X143586569Y-80132334D01*
X143694150Y-80102102D01*
X143944147Y-80032035D01*
X144182530Y-79965670D01*
X144409797Y-79902883D01*
X144626444Y-79843553D01*
X144832968Y-79787557D01*
X145029867Y-79734772D01*
X145217636Y-79685077D01*
X145396774Y-79638349D01*
X145567777Y-79594466D01*
X145731143Y-79553304D01*
X145887367Y-79514742D01*
X146036947Y-79478658D01*
X146180381Y-79444929D01*
X146318165Y-79413432D01*
X146450796Y-79384045D01*
X146578771Y-79356646D01*
X146702587Y-79331113D01*
X146822741Y-79307322D01*
X146939730Y-79285153D01*
X147054051Y-79264481D01*
X147166202Y-79245185D01*
X147189825Y-79241247D01*
X147343014Y-79216805D01*
X147485853Y-79196083D01*
X147620084Y-79178926D01*
X147747452Y-79165181D01*
X147869700Y-79154692D01*
X147988573Y-79147306D01*
X148105812Y-79142868D01*
X148223164Y-79141223D01*
X148313775Y-79141750D01*
X148313775Y-79141750D01*
G37*
X148313775Y-79141750D02*
X148388870Y-79143196D01*
X148458009Y-79145494D01*
X148523105Y-79148871D01*
X148586070Y-79153553D01*
X148648815Y-79159768D01*
X148713254Y-79167742D01*
X148781298Y-79177701D01*
X148854860Y-79189872D01*
X148935852Y-79204482D01*
X149026186Y-79221757D01*
X149082125Y-79232791D01*
X149187954Y-79254362D01*
X149293044Y-79276868D01*
X149398197Y-79300541D01*
X149504213Y-79325613D01*
X149611894Y-79352314D01*
X149722043Y-79380878D01*
X149835461Y-79411536D01*
X149952950Y-79444519D01*
X150075311Y-79480060D01*
X150203347Y-79518389D01*
X150337859Y-79559739D01*
X150479648Y-79604342D01*
X150629517Y-79652429D01*
X150788268Y-79704232D01*
X150956702Y-79759983D01*
X151135620Y-79819913D01*
X151267552Y-79864482D01*
X151396298Y-79908043D01*
X151513757Y-79947626D01*
X151620628Y-79983446D01*
X151717613Y-80015716D01*
X151805413Y-80044649D01*
X151884728Y-80070459D01*
X151956259Y-80093359D01*
X152020707Y-80113562D01*
X152078772Y-80131283D01*
X152131156Y-80146735D01*
X152178559Y-80160131D01*
X152221683Y-80171684D01*
X152261227Y-80181609D01*
X152297892Y-80190118D01*
X152332380Y-80197425D01*
X152365392Y-80203744D01*
X152397627Y-80209288D01*
X152401484Y-80209913D01*
X152460738Y-80219448D01*
X152597056Y-80175687D01*
X152735712Y-80132834D01*
X152865817Y-80096168D01*
X152989601Y-80065165D01*
X153109293Y-80039297D01*
X153227124Y-80018039D01*
X153329197Y-80002973D01*
X153380798Y-79997248D01*
X153440177Y-79992556D01*
X153504446Y-79988971D01*
X153570716Y-79986571D01*
X153636098Y-79985431D01*
X153697702Y-79985629D01*
X153752640Y-79987239D01*
X153798023Y-79990339D01*
X153800175Y-79990553D01*
X153923794Y-80007648D01*
X154037739Y-80032869D01*
X154142132Y-80066257D01*
X154237094Y-80107856D01*
X154322747Y-80157707D01*
X154363678Y-80186928D01*
X154403425Y-80217315D01*
X154832050Y-80076181D01*
X154998368Y-80021496D01*
X155153362Y-79970710D01*
X155297725Y-79923617D01*
X155432151Y-79880007D01*
X155557332Y-79839673D01*
X155673961Y-79802405D01*
X155782732Y-79767997D01*
X155884338Y-79736239D01*
X155979472Y-79706924D01*
X156068827Y-79679844D01*
X156153096Y-79654790D01*
X156232973Y-79631553D01*
X156309150Y-79609927D01*
X156382321Y-79589702D01*
X156453179Y-79570671D01*
X156522417Y-79552625D01*
X156590728Y-79535356D01*
X156658805Y-79518656D01*
X156727342Y-79502317D01*
X156795102Y-79486573D01*
X156918799Y-79459039D01*
X157045412Y-79432516D01*
X157173338Y-79407268D01*
X157300973Y-79383562D01*
X157426713Y-79361663D01*
X157548956Y-79341836D01*
X157666097Y-79324348D01*
X157776534Y-79309464D01*
X157878663Y-79297450D01*
X157970880Y-79288570D01*
X158007050Y-79285785D01*
X158125439Y-79281590D01*
X158254012Y-79284924D01*
X158392732Y-79295781D01*
X158541559Y-79314153D01*
X158700455Y-79340033D01*
X158869383Y-79373415D01*
X159048304Y-79414291D01*
X159237180Y-79462655D01*
X159435973Y-79518499D01*
X159644644Y-79581817D01*
X159670750Y-79590044D01*
X159748701Y-79614883D01*
X159825823Y-79639834D01*
X159902793Y-79665145D01*
X159980288Y-79691066D01*
X160058984Y-79717847D01*
X160139558Y-79745737D01*
X160222687Y-79774985D01*
X160309047Y-79805841D01*
X160399316Y-79838553D01*
X160494170Y-79873372D01*
X160594285Y-79910546D01*
X160700339Y-79950325D01*
X160813009Y-79992959D01*
X160932971Y-80038696D01*
X161060901Y-80087787D01*
X161197477Y-80140479D01*
X161343375Y-80197024D01*
X161499273Y-80257669D01*
X161665846Y-80322665D01*
X161775775Y-80365646D01*
X161952165Y-80434522D01*
X162117549Y-80498805D01*
X162272653Y-80558761D01*
X162418201Y-80614659D01*
X162554922Y-80666764D01*
X162683541Y-80715344D01*
X162804783Y-80760667D01*
X162919376Y-80803000D01*
X163028046Y-80842609D01*
X163131518Y-80879763D01*
X163230519Y-80914729D01*
X163325774Y-80947773D01*
X163418011Y-80979163D01*
X163507955Y-81009166D01*
X163596332Y-81038050D01*
X163648124Y-81054703D01*
X163703731Y-81072694D01*
X163747542Y-81087367D01*
X163779978Y-81098876D01*
X163801459Y-81107379D01*
X163812404Y-81113029D01*
X163813234Y-81115985D01*
X163813224Y-81115989D01*
X163802107Y-81118856D01*
X163780290Y-81123128D01*
X163749657Y-81128512D01*
X163712092Y-81134715D01*
X163669482Y-81141443D01*
X163623711Y-81148404D01*
X163576664Y-81155304D01*
X163530225Y-81161850D01*
X163486281Y-81167748D01*
X163455350Y-81171662D01*
X163211230Y-81198069D01*
X162957535Y-81218827D01*
X162696100Y-81233853D01*
X162428764Y-81243068D01*
X162157364Y-81246389D01*
X161883736Y-81243737D01*
X161841315Y-81242787D01*
X161697971Y-81238947D01*
X161566529Y-81234571D01*
X161446198Y-81229567D01*
X161336189Y-81223842D01*
X161235711Y-81217303D01*
X161143974Y-81209860D01*
X161060187Y-81201418D01*
X160983560Y-81191886D01*
X160913303Y-81181172D01*
X160848626Y-81169183D01*
X160788737Y-81155827D01*
X160732847Y-81141011D01*
X160680166Y-81124643D01*
X160629903Y-81106631D01*
X160610243Y-81098923D01*
X160571232Y-81082559D01*
X160533498Y-81065119D01*
X160495538Y-81045707D01*
X160455851Y-81023427D01*
X160412934Y-80997383D01*
X160365285Y-80966679D01*
X160311402Y-80930418D01*
X160249782Y-80887704D01*
X160214470Y-80862848D01*
X160139565Y-80810723D01*
X160072555Y-80766104D01*
X160011712Y-80728214D01*
X159955305Y-80696275D01*
X159901605Y-80669508D01*
X159848882Y-80647135D01*
X159795407Y-80628378D01*
X159739449Y-80612459D01*
X159679280Y-80598599D01*
X159613169Y-80586021D01*
X159590585Y-80582158D01*
X159511846Y-80569977D01*
X159427646Y-80558915D01*
X159337179Y-80548918D01*
X159239638Y-80539929D01*
X159134217Y-80531892D01*
X159020109Y-80524751D01*
X158896509Y-80518451D01*
X158762609Y-80512934D01*
X158617604Y-80508146D01*
X158467425Y-80504187D01*
X158256904Y-80500870D01*
X158040519Y-80500592D01*
X157820038Y-80503262D01*
X157597229Y-80508789D01*
X157373860Y-80517081D01*
X157151701Y-80528047D01*
X156932518Y-80541593D01*
X156718080Y-80557630D01*
X156510156Y-80576065D01*
X156310513Y-80596807D01*
X156120919Y-80619764D01*
X156048075Y-80629576D01*
X155802538Y-80667171D01*
X155567615Y-80710327D01*
X155342394Y-80759265D01*
X155125967Y-80814202D01*
X154917424Y-80875360D01*
X154715857Y-80942957D01*
X154650671Y-80966731D01*
X154523267Y-81014143D01*
X154499330Y-81062934D01*
X154451680Y-81156323D01*
X154398444Y-81254054D01*
X154341285Y-81353374D01*
X154281868Y-81451526D01*
X154221858Y-81545755D01*
X154162919Y-81633306D01*
X154111174Y-81705450D01*
X153997868Y-81849496D01*
X153880616Y-81981883D01*
X153758562Y-82103269D01*
X153630853Y-82214311D01*
X153496634Y-82315668D01*
X153355052Y-82407998D01*
X153205253Y-82491958D01*
X153046382Y-82568208D01*
X152926086Y-82618627D01*
X152877216Y-82637709D01*
X152828934Y-82655968D01*
X152779769Y-82673897D01*
X152728247Y-82691989D01*
X152672897Y-82710737D01*
X152612247Y-82730634D01*
X152544825Y-82752172D01*
X152469160Y-82775844D01*
X152383778Y-82802143D01*
X152317450Y-82822377D01*
X152205147Y-82856839D01*
X152104727Y-82888324D01*
X152015762Y-82916979D01*
X151937826Y-82942949D01*
X151870490Y-82966383D01*
X151813328Y-82987427D01*
X151765912Y-83006227D01*
X151727815Y-83022930D01*
X151713319Y-83029942D01*
X151671640Y-83055634D01*
X151634630Y-83087616D01*
X151605382Y-83122958D01*
X151593249Y-83143725D01*
X151585075Y-83162824D01*
X151580301Y-83181787D01*
X151578113Y-83205160D01*
X151577675Y-83230541D01*
X151577675Y-83285608D01*
X151530050Y-83292247D01*
X151412217Y-83308644D01*
X151306067Y-83323343D01*
X151210715Y-83336457D01*
X151125273Y-83348096D01*
X151048855Y-83358373D01*
X150980574Y-83367399D01*
X150919543Y-83375287D01*
X150864875Y-83382149D01*
X150815685Y-83388095D01*
X150771084Y-83393239D01*
X150730187Y-83397691D01*
X150692107Y-83401564D01*
X150655957Y-83404969D01*
X150620850Y-83408019D01*
X150596600Y-83409988D01*
X150508451Y-83416014D01*
X150421001Y-83420198D01*
X150336991Y-83422473D01*
X150259165Y-83422775D01*
X150190267Y-83421039D01*
X150171150Y-83420076D01*
X150057191Y-83410338D01*
X149952874Y-83394636D01*
X149856476Y-83372672D01*
X149802850Y-83356731D01*
X149774832Y-83346774D01*
X149743366Y-83334187D01*
X149710558Y-83319983D01*
X149678516Y-83305174D01*
X149649347Y-83290775D01*
X149625158Y-83277800D01*
X149608057Y-83267260D01*
X149600151Y-83260171D01*
X149599855Y-83259114D01*
X149605274Y-83254182D01*
X149620415Y-83244197D01*
X149643773Y-83230052D01*
X149673847Y-83212637D01*
X149709134Y-83192844D01*
X149740885Y-83175475D01*
X149840761Y-83120789D01*
X149947855Y-83060984D01*
X150058811Y-82997975D01*
X150170278Y-82933682D01*
X150278900Y-82870023D01*
X150371175Y-82815025D01*
X150511276Y-82729576D01*
X150640791Y-82648124D01*
X150759600Y-82570757D01*
X150867587Y-82497563D01*
X150964634Y-82428630D01*
X151050623Y-82364045D01*
X151125435Y-82303897D01*
X151188954Y-82248273D01*
X151241062Y-82197261D01*
X151281640Y-82150949D01*
X151304523Y-82119217D01*
X151343624Y-82048109D01*
X151372675Y-81972695D01*
X151391414Y-81894784D01*
X151399579Y-81816187D01*
X151396909Y-81738712D01*
X151383141Y-81664171D01*
X151374494Y-81635655D01*
X151344814Y-81561547D01*
X151308142Y-81494438D01*
X151263453Y-81433185D01*
X151209722Y-81376646D01*
X151145923Y-81323679D01*
X151071030Y-81273142D01*
X151024696Y-81245943D01*
X151004483Y-81235113D01*
X150974107Y-81219537D01*
X150934903Y-81199857D01*
X150888208Y-81176720D01*
X150835355Y-81150768D01*
X150777682Y-81122647D01*
X150716524Y-81093000D01*
X150653216Y-81062472D01*
X150589094Y-81031707D01*
X150525494Y-81001349D01*
X150463751Y-80972042D01*
X150405201Y-80944430D01*
X150351180Y-80919158D01*
X150303023Y-80896871D01*
X150265431Y-80879729D01*
X150043112Y-80782901D01*
X149825584Y-80695329D01*
X149613201Y-80617116D01*
X149406315Y-80548363D01*
X149205279Y-80489173D01*
X149010445Y-80439649D01*
X148822167Y-80399891D01*
X148640797Y-80370003D01*
X148466689Y-80350086D01*
X148424900Y-80346718D01*
X148373301Y-80343590D01*
X148311002Y-80340933D01*
X148239993Y-80338766D01*
X148162267Y-80337108D01*
X148079815Y-80335977D01*
X147994628Y-80335391D01*
X147908697Y-80335370D01*
X147824015Y-80335931D01*
X147742572Y-80337094D01*
X147666359Y-80338877D01*
X147647025Y-80339464D01*
X147446154Y-80347141D01*
X147247522Y-80357184D01*
X147051804Y-80369499D01*
X146859676Y-80383990D01*
X146671815Y-80400562D01*
X146488895Y-80419118D01*
X146311594Y-80439564D01*
X146140587Y-80461804D01*
X145976550Y-80485742D01*
X145820158Y-80511284D01*
X145672089Y-80538332D01*
X145533017Y-80566793D01*
X145403619Y-80596571D01*
X145284571Y-80627569D01*
X145176548Y-80659693D01*
X145080227Y-80692847D01*
X145042524Y-80707417D01*
X145027171Y-80714142D01*
X145002668Y-80725559D01*
X144971195Y-80740619D01*
X144934933Y-80758276D01*
X144896062Y-80777483D01*
X144881215Y-80784892D01*
X144780494Y-80834363D01*
X144688811Y-80877312D01*
X144604669Y-80914306D01*
X144526569Y-80945912D01*
X144453010Y-80972696D01*
X144382496Y-80995224D01*
X144313526Y-81014064D01*
X144244603Y-81029782D01*
X144220866Y-81034524D01*
X144163243Y-81045676D01*
X144114581Y-81055039D01*
X144073094Y-81062780D01*
X144036993Y-81069066D01*
X144004492Y-81074065D01*
X143973801Y-81077944D01*
X143943135Y-81080870D01*
X143910704Y-81083012D01*
X143874723Y-81084536D01*
X143833402Y-81085609D01*
X143784955Y-81086399D01*
X143727595Y-81087074D01*
X143659533Y-81087800D01*
X143650804Y-81087896D01*
X143359329Y-81087347D01*
X143059461Y-81079448D01*
X142753071Y-81064329D01*
X142442028Y-81042123D01*
X142128202Y-81012959D01*
X141813464Y-80976969D01*
X141538325Y-80939913D01*
X141493584Y-80933307D01*
X141443864Y-80925709D01*
X141390597Y-80917359D01*
X141335219Y-80908500D01*
X141279164Y-80899373D01*
X141223864Y-80890221D01*
X141170754Y-80881285D01*
X141121268Y-80872806D01*
X141076839Y-80865027D01*
X141038903Y-80858189D01*
X141008892Y-80852534D01*
X140988241Y-80848303D01*
X140978384Y-80845739D01*
X140977802Y-80845419D01*
X140977130Y-80844643D01*
X140977400Y-80843776D01*
X140979589Y-80842556D01*
X140984669Y-80840719D01*
X140993616Y-80838000D01*
X141007406Y-80834137D01*
X141027012Y-80828866D01*
X141053410Y-80821924D01*
X141087575Y-80813048D01*
X141130480Y-80801972D01*
X141183102Y-80788435D01*
X141246415Y-80772173D01*
X141293850Y-80759994D01*
X141382510Y-80737122D01*
X141474154Y-80713258D01*
X141569339Y-80688251D01*
X141668623Y-80661948D01*
X141772567Y-80634194D01*
X141881727Y-80604838D01*
X141996663Y-80573725D01*
X142117933Y-80540703D01*
X142246096Y-80505619D01*
X142381710Y-80468320D01*
X142525334Y-80428652D01*
X142677527Y-80386463D01*
X142838846Y-80341599D01*
X143009852Y-80293907D01*
X143191102Y-80243234D01*
X143383155Y-80189427D01*
X143586569Y-80132334D01*
X143694150Y-80102102D01*
X143944147Y-80032035D01*
X144182530Y-79965670D01*
X144409797Y-79902883D01*
X144626444Y-79843553D01*
X144832968Y-79787557D01*
X145029867Y-79734772D01*
X145217636Y-79685077D01*
X145396774Y-79638349D01*
X145567777Y-79594466D01*
X145731143Y-79553304D01*
X145887367Y-79514742D01*
X146036947Y-79478658D01*
X146180381Y-79444929D01*
X146318165Y-79413432D01*
X146450796Y-79384045D01*
X146578771Y-79356646D01*
X146702587Y-79331113D01*
X146822741Y-79307322D01*
X146939730Y-79285153D01*
X147054051Y-79264481D01*
X147166202Y-79245185D01*
X147189825Y-79241247D01*
X147343014Y-79216805D01*
X147485853Y-79196083D01*
X147620084Y-79178926D01*
X147747452Y-79165181D01*
X147869700Y-79154692D01*
X147988573Y-79147306D01*
X148105812Y-79142868D01*
X148223164Y-79141223D01*
X148313775Y-79141750D01*
D13*
X151661905Y-105862381D02*
X151661905Y-104862381D01*
X152042858Y-104862381D01*
X152138096Y-104910000D01*
X152185715Y-104957619D01*
X152233334Y-105052857D01*
X152233334Y-105195714D01*
X152185715Y-105290952D01*
X152138096Y-105338571D01*
X152042858Y-105386190D01*
X151661905Y-105386190D01*
X153185715Y-105862381D02*
X152614286Y-105862381D01*
X152900000Y-105862381D02*
X152900000Y-104862381D01*
X152804762Y-105005238D01*
X152709524Y-105100476D01*
X152614286Y-105148095D01*
X161798095Y-83272381D02*
X161798095Y-84081905D01*
X161845714Y-84177143D01*
X161893333Y-84224762D01*
X161988571Y-84272381D01*
X162179048Y-84272381D01*
X162274286Y-84224762D01*
X162321905Y-84177143D01*
X162369524Y-84081905D01*
X162369524Y-83272381D01*
X162798095Y-83367619D02*
X162845714Y-83320000D01*
X162940952Y-83272381D01*
X163179048Y-83272381D01*
X163274286Y-83320000D01*
X163321905Y-83367619D01*
X163369524Y-83462857D01*
X163369524Y-83558095D01*
X163321905Y-83700952D01*
X162750476Y-84272381D01*
X163369524Y-84272381D01*
X161798095Y-106132381D02*
X161798095Y-106941905D01*
X161845714Y-107037143D01*
X161893333Y-107084762D01*
X161988571Y-107132381D01*
X162179048Y-107132381D01*
X162274286Y-107084762D01*
X162321905Y-107037143D01*
X162369524Y-106941905D01*
X162369524Y-106132381D01*
X162750476Y-106132381D02*
X163369524Y-106132381D01*
X163036190Y-106513333D01*
X163179048Y-106513333D01*
X163274286Y-106560952D01*
X163321905Y-106608571D01*
X163369524Y-106703810D01*
X163369524Y-106941905D01*
X163321905Y-107037143D01*
X163274286Y-107084762D01*
X163179048Y-107132381D01*
X162893333Y-107132381D01*
X162798095Y-107084762D01*
X162750476Y-107037143D01*
X141478095Y-106132381D02*
X141478095Y-106941905D01*
X141525714Y-107037143D01*
X141573333Y-107084762D01*
X141668571Y-107132381D01*
X141859048Y-107132381D01*
X141954286Y-107084762D01*
X142001905Y-107037143D01*
X142049524Y-106941905D01*
X142049524Y-106132381D01*
X142954286Y-106465714D02*
X142954286Y-107132381D01*
X142716190Y-106084762D02*
X142478095Y-106799048D01*
X143097143Y-106799048D01*
X141478095Y-83272381D02*
X141478095Y-84081905D01*
X141525714Y-84177143D01*
X141573333Y-84224762D01*
X141668571Y-84272381D01*
X141859048Y-84272381D01*
X141954286Y-84224762D01*
X142001905Y-84177143D01*
X142049524Y-84081905D01*
X142049524Y-83272381D01*
X143049524Y-84272381D02*
X142478095Y-84272381D01*
X142763809Y-84272381D02*
X142763809Y-83272381D01*
X142668571Y-83415238D01*
X142573333Y-83510476D01*
X142478095Y-83558095D01*
M02*
