G04 #@! TF.FileFunction,Soldermask,Top*
%FSLAX46Y46*%
G04 Gerber Fmt 4.6, Leading zero omitted, Abs format (unit mm)*
G04 Created by KiCad (PCBNEW (2015-11-29 BZR 6336)-product) date vrijdag 15 april 2016 20:54:22*
%MOMM*%
G01*
G04 APERTURE LIST*
%ADD10C,0.100000*%
%ADD11R,1.100000X2.610000*%
%ADD12C,3.300000*%
%ADD13R,2.100000X0.700000*%
G04 APERTURE END LIST*
D10*
D11*
X135890000Y-103255000D03*
X133350000Y-99945000D03*
X138430000Y-99945000D03*
X140970000Y-103255000D03*
X151130000Y-103255000D03*
X148590000Y-99945000D03*
X143510000Y-99945000D03*
X146050000Y-103255000D03*
X171450000Y-103255000D03*
X168910000Y-99945000D03*
X163830000Y-99945000D03*
X166370000Y-103255000D03*
X161290000Y-103255000D03*
X158750000Y-99945000D03*
X156210000Y-103255000D03*
X153670000Y-99945000D03*
D12*
X173990000Y-123190000D03*
X173990000Y-80010000D03*
X130810000Y-123190000D03*
D13*
X157860000Y-83185000D03*
X157860000Y-84455000D03*
X157860000Y-85725000D03*
X157860000Y-86995000D03*
X157860000Y-88265000D03*
X157860000Y-89535000D03*
X157860000Y-90805000D03*
X157860000Y-92075000D03*
X157860000Y-93345000D03*
X157860000Y-94615000D03*
X157860000Y-95885000D03*
X157860000Y-97155000D03*
X167260000Y-97155000D03*
X167260000Y-95885000D03*
X167260000Y-94615000D03*
X167260000Y-93345000D03*
X167260000Y-92075000D03*
X167260000Y-90805000D03*
X167260000Y-89535000D03*
X167260000Y-88265000D03*
X167260000Y-86995000D03*
X167260000Y-85725000D03*
X167260000Y-84455000D03*
X167260000Y-83185000D03*
X157860000Y-106045000D03*
X157860000Y-107315000D03*
X157860000Y-108585000D03*
X157860000Y-109855000D03*
X157860000Y-111125000D03*
X157860000Y-112395000D03*
X157860000Y-113665000D03*
X157860000Y-114935000D03*
X157860000Y-116205000D03*
X157860000Y-117475000D03*
X157860000Y-118745000D03*
X157860000Y-120015000D03*
X167260000Y-120015000D03*
X167260000Y-118745000D03*
X167260000Y-117475000D03*
X167260000Y-116205000D03*
X167260000Y-114935000D03*
X167260000Y-113665000D03*
X167260000Y-112395000D03*
X167260000Y-111125000D03*
X167260000Y-109855000D03*
X167260000Y-108585000D03*
X167260000Y-107315000D03*
X167260000Y-106045000D03*
X137540000Y-106045000D03*
X137540000Y-107315000D03*
X137540000Y-108585000D03*
X137540000Y-109855000D03*
X137540000Y-111125000D03*
X137540000Y-112395000D03*
X137540000Y-113665000D03*
X137540000Y-114935000D03*
X137540000Y-116205000D03*
X137540000Y-117475000D03*
X137540000Y-118745000D03*
X137540000Y-120015000D03*
X146940000Y-120015000D03*
X146940000Y-118745000D03*
X146940000Y-117475000D03*
X146940000Y-116205000D03*
X146940000Y-114935000D03*
X146940000Y-113665000D03*
X146940000Y-112395000D03*
X146940000Y-111125000D03*
X146940000Y-109855000D03*
X146940000Y-108585000D03*
X146940000Y-107315000D03*
X146940000Y-106045000D03*
X137540000Y-83185000D03*
X137540000Y-84455000D03*
X137540000Y-85725000D03*
X137540000Y-86995000D03*
X137540000Y-88265000D03*
X137540000Y-89535000D03*
X137540000Y-90805000D03*
X137540000Y-92075000D03*
X137540000Y-93345000D03*
X137540000Y-94615000D03*
X137540000Y-95885000D03*
X137540000Y-97155000D03*
X146940000Y-97155000D03*
X146940000Y-95885000D03*
X146940000Y-94615000D03*
X146940000Y-93345000D03*
X146940000Y-92075000D03*
X146940000Y-90805000D03*
X146940000Y-89535000D03*
X146940000Y-88265000D03*
X146940000Y-86995000D03*
X146940000Y-85725000D03*
X146940000Y-84455000D03*
X146940000Y-83185000D03*
D12*
X130810000Y-80010000D03*
M02*
