G04 #@! TF.FileFunction,Copper,L1,Top,Signal*
%FSLAX46Y46*%
G04 Gerber Fmt 4.6, Leading zero omitted, Abs format (unit mm)*
G04 Created by KiCad (PCBNEW (2015-11-29 BZR 6336)-product) date vrijdag 15 april 2016 20:54:22*
%MOMM*%
G01*
G04 APERTURE LIST*
%ADD10C,0.100000*%
%ADD11R,1.000000X2.510000*%
%ADD12R,2.000000X0.600000*%
%ADD13C,0.508000*%
%ADD14C,0.254000*%
%ADD15C,0.304800*%
G04 APERTURE END LIST*
D10*
D11*
X135890000Y-103255000D03*
X133350000Y-99945000D03*
X138430000Y-99945000D03*
X140970000Y-103255000D03*
X151130000Y-103255000D03*
X148590000Y-99945000D03*
X143510000Y-99945000D03*
X146050000Y-103255000D03*
X171450000Y-103255000D03*
X168910000Y-99945000D03*
X163830000Y-99945000D03*
X166370000Y-103255000D03*
X161290000Y-103255000D03*
X158750000Y-99945000D03*
X156210000Y-103255000D03*
X153670000Y-99945000D03*
D12*
X157860000Y-83185000D03*
X157860000Y-84455000D03*
X157860000Y-85725000D03*
X157860000Y-86995000D03*
X157860000Y-88265000D03*
X157860000Y-89535000D03*
X157860000Y-90805000D03*
X157860000Y-92075000D03*
X157860000Y-93345000D03*
X157860000Y-94615000D03*
X157860000Y-95885000D03*
X157860000Y-97155000D03*
X167260000Y-97155000D03*
X167260000Y-95885000D03*
X167260000Y-94615000D03*
X167260000Y-93345000D03*
X167260000Y-92075000D03*
X167260000Y-90805000D03*
X167260000Y-89535000D03*
X167260000Y-88265000D03*
X167260000Y-86995000D03*
X167260000Y-85725000D03*
X167260000Y-84455000D03*
X167260000Y-83185000D03*
X157860000Y-106045000D03*
X157860000Y-107315000D03*
X157860000Y-108585000D03*
X157860000Y-109855000D03*
X157860000Y-111125000D03*
X157860000Y-112395000D03*
X157860000Y-113665000D03*
X157860000Y-114935000D03*
X157860000Y-116205000D03*
X157860000Y-117475000D03*
X157860000Y-118745000D03*
X157860000Y-120015000D03*
X167260000Y-120015000D03*
X167260000Y-118745000D03*
X167260000Y-117475000D03*
X167260000Y-116205000D03*
X167260000Y-114935000D03*
X167260000Y-113665000D03*
X167260000Y-112395000D03*
X167260000Y-111125000D03*
X167260000Y-109855000D03*
X167260000Y-108585000D03*
X167260000Y-107315000D03*
X167260000Y-106045000D03*
X137540000Y-106045000D03*
X137540000Y-107315000D03*
X137540000Y-108585000D03*
X137540000Y-109855000D03*
X137540000Y-111125000D03*
X137540000Y-112395000D03*
X137540000Y-113665000D03*
X137540000Y-114935000D03*
X137540000Y-116205000D03*
X137540000Y-117475000D03*
X137540000Y-118745000D03*
X137540000Y-120015000D03*
X146940000Y-120015000D03*
X146940000Y-118745000D03*
X146940000Y-117475000D03*
X146940000Y-116205000D03*
X146940000Y-114935000D03*
X146940000Y-113665000D03*
X146940000Y-112395000D03*
X146940000Y-111125000D03*
X146940000Y-109855000D03*
X146940000Y-108585000D03*
X146940000Y-107315000D03*
X146940000Y-106045000D03*
X137540000Y-83185000D03*
X137540000Y-84455000D03*
X137540000Y-85725000D03*
X137540000Y-86995000D03*
X137540000Y-88265000D03*
X137540000Y-89535000D03*
X137540000Y-90805000D03*
X137540000Y-92075000D03*
X137540000Y-93345000D03*
X137540000Y-94615000D03*
X137540000Y-95885000D03*
X137540000Y-97155000D03*
X146940000Y-97155000D03*
X146940000Y-95885000D03*
X146940000Y-94615000D03*
X146940000Y-93345000D03*
X146940000Y-92075000D03*
X146940000Y-90805000D03*
X146940000Y-89535000D03*
X146940000Y-88265000D03*
X146940000Y-86995000D03*
X146940000Y-85725000D03*
X146940000Y-84455000D03*
X146940000Y-83185000D03*
D13*
X151765000Y-85725000D03*
X139700000Y-85090000D03*
X152400000Y-85090000D03*
X142240000Y-84455000D03*
X163830000Y-85090000D03*
X151765000Y-84455000D03*
X165100000Y-85090000D03*
X151765000Y-86995000D03*
X134620000Y-87630000D03*
X152400000Y-86360000D03*
X143510000Y-88900000D03*
X151765000Y-88265000D03*
X152400000Y-88900000D03*
X162560000Y-88900000D03*
X152400000Y-87630000D03*
X170180000Y-87630000D03*
X151130000Y-95885000D03*
X139700000Y-90170000D03*
X150495000Y-95250000D03*
X140335000Y-90805000D03*
X163830000Y-92710000D03*
X153035000Y-91440000D03*
X165100000Y-90170000D03*
X152400000Y-92075000D03*
X133350000Y-97790000D03*
X150495000Y-96520000D03*
X142240000Y-96520000D03*
X151765000Y-98425000D03*
X151130000Y-97790000D03*
X163830000Y-96520000D03*
X151765000Y-92710000D03*
X170180000Y-92075000D03*
X151130000Y-106045000D03*
X139700000Y-105410000D03*
X150495000Y-105410000D03*
X140335000Y-106045000D03*
X165100000Y-106680000D03*
X151765000Y-107315000D03*
X169545000Y-106045000D03*
X151130000Y-107950000D03*
X134620000Y-107950000D03*
X150495000Y-106680000D03*
X139700000Y-111125000D03*
X151765000Y-111125000D03*
X154940000Y-110490000D03*
X169545000Y-111125000D03*
X151765000Y-108585000D03*
X170180000Y-110490000D03*
X149860000Y-117475000D03*
X139700000Y-112395000D03*
X149225000Y-116840000D03*
X140970000Y-113030000D03*
X170180000Y-112395000D03*
X153035000Y-114300000D03*
X165100000Y-113030000D03*
X152400000Y-114935000D03*
X134620000Y-116205000D03*
X149225000Y-118110000D03*
X140970000Y-116840000D03*
X151130000Y-119380000D03*
X149860000Y-116205000D03*
X163830000Y-116840000D03*
X151765000Y-115570000D03*
X170180000Y-116205000D03*
X162560000Y-101600000D03*
X154940000Y-100965000D03*
X135890000Y-98425000D03*
X156845000Y-98425000D03*
X162560000Y-97790000D03*
X167894000Y-103124000D03*
X153035000Y-102870000D03*
X142240000Y-102235000D03*
X142240000Y-104775000D03*
X157480000Y-100965000D03*
X161925000Y-100330000D03*
D14*
X157860000Y-85725000D02*
X151765000Y-85725000D01*
X137540000Y-84455000D02*
X139065000Y-84455000D01*
X139065000Y-84455000D02*
X139700000Y-85090000D01*
X155575000Y-85090000D02*
X152400000Y-85090000D01*
X156210000Y-84455000D02*
X155575000Y-85090000D01*
X157860000Y-84455000D02*
X156210000Y-84455000D01*
X142240000Y-85090000D02*
X142240000Y-84455000D01*
X141605000Y-85725000D02*
X142240000Y-85090000D01*
X137540000Y-85725000D02*
X141605000Y-85725000D01*
X167260000Y-85725000D02*
X164465000Y-85725000D01*
X164465000Y-85725000D02*
X163830000Y-85090000D01*
X146940000Y-84455000D02*
X151765000Y-84455000D01*
X167260000Y-84455000D02*
X165735000Y-84455000D01*
X165735000Y-84455000D02*
X165100000Y-85090000D01*
X150495000Y-85725000D02*
X151765000Y-86995000D01*
X146940000Y-85725000D02*
X150495000Y-85725000D01*
X135255000Y-86995000D02*
X134620000Y-87630000D01*
X137540000Y-86995000D02*
X135255000Y-86995000D01*
X155575000Y-86360000D02*
X152400000Y-86360000D01*
X156210000Y-86995000D02*
X155575000Y-86360000D01*
X157860000Y-86995000D02*
X156210000Y-86995000D01*
X137540000Y-88265000D02*
X142875000Y-88265000D01*
X142875000Y-88265000D02*
X143510000Y-88900000D01*
X157860000Y-88265000D02*
X151765000Y-88265000D01*
X150495000Y-88265000D02*
X151130000Y-88900000D01*
X151130000Y-88900000D02*
X152400000Y-88900000D01*
X146940000Y-88265000D02*
X150495000Y-88265000D01*
X165100000Y-88900000D02*
X162560000Y-88900000D01*
X165735000Y-88265000D02*
X165100000Y-88900000D01*
X167260000Y-88265000D02*
X165735000Y-88265000D01*
X151130000Y-87630000D02*
X152400000Y-87630000D01*
X150495000Y-86995000D02*
X151130000Y-87630000D01*
X146940000Y-86995000D02*
X150495000Y-86995000D01*
X167260000Y-86995000D02*
X169545000Y-86995000D01*
X169545000Y-86995000D02*
X170180000Y-87630000D01*
X151130000Y-95885000D02*
X156210000Y-90805000D01*
X157860000Y-90805000D02*
X156210000Y-90805000D01*
X137540000Y-89535000D02*
X139065000Y-89535000D01*
X139065000Y-89535000D02*
X139700000Y-90170000D01*
X156210000Y-89535000D02*
X150495000Y-95250000D01*
X157860000Y-89535000D02*
X156210000Y-89535000D01*
X137540000Y-90805000D02*
X140335000Y-90805000D01*
X165735000Y-90805000D02*
X163830000Y-92710000D01*
X167260000Y-90805000D02*
X165735000Y-90805000D01*
X148590000Y-89535000D02*
X151130000Y-89535000D01*
X151130000Y-89535000D02*
X153035000Y-91440000D01*
X146940000Y-89535000D02*
X148590000Y-89535000D01*
X167260000Y-89535000D02*
X165735000Y-89535000D01*
X165735000Y-89535000D02*
X165100000Y-90170000D01*
X151130000Y-90805000D02*
X152400000Y-92075000D01*
X148590000Y-90805000D02*
X151130000Y-90805000D01*
X146940000Y-90805000D02*
X148590000Y-90805000D01*
X133350000Y-93345000D02*
X133350000Y-97790000D01*
X134620000Y-92075000D02*
X133350000Y-93345000D01*
X137540000Y-92075000D02*
X134620000Y-92075000D01*
X151765000Y-96520000D02*
X150495000Y-96520000D01*
X156210000Y-92075000D02*
X151765000Y-96520000D01*
X157860000Y-92075000D02*
X156210000Y-92075000D01*
X139065000Y-93345000D02*
X142240000Y-96520000D01*
X137540000Y-93345000D02*
X139065000Y-93345000D01*
X151765000Y-97790000D02*
X151765000Y-98425000D01*
X156210000Y-93345000D02*
X151765000Y-97790000D01*
X157860000Y-93345000D02*
X156210000Y-93345000D01*
X149860000Y-97155000D02*
X150495000Y-97790000D01*
X150495000Y-97790000D02*
X151130000Y-97790000D01*
X149860000Y-94615000D02*
X149860000Y-97155000D01*
X148590000Y-93345000D02*
X149860000Y-94615000D01*
X148590000Y-93345000D02*
X146940000Y-93345000D01*
X165735000Y-93345000D02*
X163830000Y-95250000D01*
X163830000Y-95250000D02*
X163830000Y-96520000D01*
X167260000Y-93345000D02*
X165735000Y-93345000D01*
X148590000Y-92075000D02*
X151130000Y-92075000D01*
X151130000Y-92075000D02*
X151765000Y-92710000D01*
X146940000Y-92075000D02*
X148590000Y-92075000D01*
X167260000Y-92075000D02*
X170180000Y-92075000D01*
X156210000Y-108585000D02*
X153670000Y-106045000D01*
X153670000Y-106045000D02*
X151130000Y-106045000D01*
X157860000Y-108585000D02*
X156210000Y-108585000D01*
X139700000Y-106680000D02*
X139700000Y-105410000D01*
X139065000Y-107315000D02*
X139700000Y-106680000D01*
X137540000Y-107315000D02*
X139065000Y-107315000D01*
X156210000Y-107315000D02*
X154305000Y-105410000D01*
X154305000Y-105410000D02*
X150495000Y-105410000D01*
X157860000Y-107315000D02*
X156210000Y-107315000D01*
X140335000Y-107315000D02*
X140335000Y-106045000D01*
X139065000Y-108585000D02*
X140335000Y-107315000D01*
X137540000Y-108585000D02*
X139065000Y-108585000D01*
X165100000Y-107950000D02*
X165100000Y-106680000D01*
X165735000Y-108585000D02*
X165100000Y-107950000D01*
X167260000Y-108585000D02*
X165735000Y-108585000D01*
X146940000Y-107315000D02*
X151765000Y-107315000D01*
X168910000Y-107315000D02*
X169545000Y-106680000D01*
X169545000Y-106680000D02*
X169545000Y-106045000D01*
X167260000Y-107315000D02*
X168910000Y-107315000D01*
X148590000Y-108585000D02*
X149225000Y-107950000D01*
X149225000Y-107950000D02*
X151130000Y-107950000D01*
X146940000Y-108585000D02*
X148590000Y-108585000D01*
X135890000Y-109855000D02*
X134620000Y-108585000D01*
X134620000Y-108585000D02*
X134620000Y-107950000D01*
X137540000Y-109855000D02*
X135890000Y-109855000D01*
X156210000Y-109855000D02*
X153035000Y-106680000D01*
X153035000Y-106680000D02*
X150495000Y-106680000D01*
X157860000Y-109855000D02*
X156210000Y-109855000D01*
X137540000Y-111125000D02*
X139700000Y-111125000D01*
X157860000Y-111125000D02*
X151765000Y-111125000D01*
X148590000Y-111125000D02*
X149225000Y-110490000D01*
X149225000Y-110490000D02*
X154940000Y-110490000D01*
X146940000Y-111125000D02*
X148590000Y-111125000D01*
D15*
X167260000Y-111125000D02*
X169545000Y-111125000D01*
D14*
X149860000Y-108585000D02*
X151765000Y-108585000D01*
X148590000Y-109855000D02*
X149860000Y-108585000D01*
X146940000Y-109855000D02*
X148590000Y-109855000D01*
D15*
X170180000Y-110490000D02*
X169545000Y-109855000D01*
X169545000Y-109855000D02*
X167260000Y-109855000D01*
D14*
X152400000Y-117475000D02*
X153035000Y-116840000D01*
X149860000Y-117475000D02*
X152400000Y-117475000D01*
X156210000Y-113665000D02*
X153035000Y-116840000D01*
X157860000Y-113665000D02*
X156210000Y-113665000D01*
X137540000Y-112395000D02*
X139700000Y-112395000D01*
X149225000Y-116840000D02*
X151765000Y-116840000D01*
X151765000Y-116840000D02*
X156210000Y-112395000D01*
X156210000Y-112395000D02*
X157860000Y-112395000D01*
X140335000Y-113665000D02*
X140970000Y-113030000D01*
X137540000Y-113665000D02*
X140335000Y-113665000D01*
D15*
X167260000Y-113665000D02*
X168910000Y-113665000D01*
X168910000Y-113665000D02*
X170180000Y-112395000D01*
D14*
X146940000Y-112395000D02*
X151130000Y-112395000D01*
X151130000Y-112395000D02*
X153035000Y-114300000D01*
D15*
X167260000Y-112395000D02*
X165735000Y-112395000D01*
X165735000Y-112395000D02*
X165100000Y-113030000D01*
D14*
X151130000Y-113665000D02*
X152400000Y-114935000D01*
X146940000Y-113665000D02*
X151130000Y-113665000D01*
D15*
X135890000Y-114935000D02*
X134620000Y-116205000D01*
X137540000Y-114935000D02*
X135890000Y-114935000D01*
D14*
X149225000Y-118110000D02*
X153035000Y-118110000D01*
X153035000Y-118110000D02*
X156210000Y-114935000D01*
X156210000Y-114935000D02*
X157860000Y-114935000D01*
X137540000Y-116205000D02*
X140335000Y-116205000D01*
X140335000Y-116205000D02*
X140970000Y-116840000D01*
X153035000Y-119380000D02*
X151130000Y-119380000D01*
X154305000Y-118110000D02*
X153035000Y-119380000D01*
X156210000Y-116205000D02*
X154305000Y-118110000D01*
X157860000Y-116205000D02*
X156210000Y-116205000D01*
X146940000Y-116205000D02*
X149860000Y-116205000D01*
X167260000Y-116205000D02*
X164465000Y-116205000D01*
X164465000Y-116205000D02*
X163830000Y-116840000D01*
X146940000Y-114935000D02*
X151130000Y-114935000D01*
X151130000Y-114935000D02*
X151765000Y-115570000D01*
D15*
X167260000Y-114935000D02*
X168910000Y-114935000D01*
X168910000Y-114935000D02*
X170180000Y-116205000D01*
D14*
X162560000Y-113665000D02*
X162560000Y-101600000D01*
X161925000Y-114300000D02*
X162560000Y-113665000D01*
X161925000Y-117475000D02*
X161925000Y-114300000D01*
X159385000Y-120015000D02*
X161925000Y-117475000D01*
X157860000Y-120015000D02*
X159385000Y-120015000D01*
X135890000Y-97155000D02*
X135890000Y-98425000D01*
X137540000Y-97155000D02*
X135890000Y-97155000D01*
X157860000Y-98045000D02*
X157480000Y-98425000D01*
X157480000Y-98425000D02*
X156845000Y-98425000D01*
X157860000Y-97155000D02*
X157860000Y-98045000D01*
X162560000Y-97790000D02*
X162560000Y-96520000D01*
X161290000Y-95250000D02*
X162560000Y-96520000D01*
X161290000Y-81280000D02*
X147955000Y-81280000D01*
X166370000Y-81280000D02*
X161290000Y-81280000D01*
X161290000Y-81280000D02*
X161290000Y-95250000D01*
X167260000Y-105155000D02*
X167894000Y-104521000D01*
X167894000Y-103124000D02*
X167894000Y-104521000D01*
X167260000Y-105155000D02*
X167260000Y-106045000D01*
X151130000Y-103255000D02*
X152650000Y-103255000D01*
X152650000Y-103255000D02*
X153035000Y-102870000D01*
X146940000Y-106045000D02*
X147640000Y-106045000D01*
X147640000Y-106045000D02*
X148590000Y-105095000D01*
X148590000Y-105095000D02*
X148590000Y-104140000D01*
X148590000Y-104140000D02*
X149475000Y-103255000D01*
X149475000Y-103255000D02*
X151130000Y-103255000D01*
X167260000Y-82170000D02*
X166370000Y-81280000D01*
X167260000Y-83185000D02*
X167260000Y-82170000D01*
X146940000Y-82295000D02*
X147955000Y-81280000D01*
X146940000Y-83185000D02*
X146940000Y-82295000D01*
X135890000Y-103255000D02*
X135890000Y-104140000D01*
X135890000Y-104140000D02*
X133985000Y-106045000D01*
X135890000Y-103255000D02*
X135890000Y-99822000D01*
X135890000Y-99822000D02*
X137668000Y-98044000D01*
X138811000Y-98044000D02*
X137668000Y-98044000D01*
X139700000Y-97155000D02*
X138811000Y-98044000D01*
X139700000Y-95250000D02*
X139700000Y-97155000D01*
X139065000Y-94615000D02*
X139700000Y-95250000D01*
X137540000Y-94615000D02*
X139065000Y-94615000D01*
X133985000Y-106045000D02*
X133985000Y-116840000D01*
X133985000Y-116840000D02*
X134620000Y-117475000D01*
X134620000Y-117475000D02*
X137540000Y-117475000D01*
X133350000Y-117475000D02*
X133350000Y-99945000D01*
X134620000Y-118745000D02*
X133350000Y-117475000D01*
X137540000Y-118745000D02*
X134620000Y-118745000D01*
X134620000Y-97790000D02*
X134620000Y-96520000D01*
X133350000Y-99060000D02*
X134620000Y-97790000D01*
X133350000Y-99945000D02*
X133350000Y-99060000D01*
X135255000Y-95885000D02*
X134620000Y-96520000D01*
X137540000Y-95885000D02*
X135255000Y-95885000D01*
X143125000Y-103255000D02*
X146940000Y-99440000D01*
X140970000Y-103255000D02*
X143125000Y-103255000D01*
X146940000Y-99440000D02*
X146940000Y-97155000D01*
X143510000Y-107950000D02*
X140970000Y-105410000D01*
X140970000Y-105410000D02*
X140970000Y-103255000D01*
X143510000Y-118110000D02*
X143510000Y-107950000D01*
X145415000Y-120015000D02*
X143510000Y-118110000D01*
X146940000Y-120015000D02*
X145415000Y-120015000D01*
X142240000Y-100330000D02*
X142240000Y-102235000D01*
X143510000Y-99945000D02*
X142625000Y-99945000D01*
X142625000Y-99945000D02*
X142240000Y-100330000D01*
X144145000Y-117475000D02*
X144145000Y-107315000D01*
X144145000Y-107315000D02*
X144145000Y-106680000D01*
X144145000Y-106680000D02*
X142240000Y-104775000D01*
X145415000Y-118745000D02*
X144145000Y-117475000D01*
X146940000Y-118745000D02*
X145415000Y-118745000D01*
X145415000Y-95885000D02*
X143510000Y-97790000D01*
X143510000Y-97790000D02*
X143510000Y-99945000D01*
X146940000Y-95885000D02*
X145415000Y-95885000D01*
X158750000Y-99945000D02*
X157095000Y-99945000D01*
X157095000Y-99945000D02*
X155575000Y-98425000D01*
X155575000Y-95250000D02*
X155575000Y-98425000D01*
X156210000Y-94615000D02*
X155575000Y-95250000D01*
X157860000Y-94615000D02*
X156210000Y-94615000D01*
X158750000Y-104140000D02*
X160020000Y-105410000D01*
X158750000Y-99945000D02*
X158750000Y-104140000D01*
X160020000Y-116840000D02*
X160020000Y-105410000D01*
X159385000Y-117475000D02*
X160020000Y-116840000D01*
X157860000Y-117475000D02*
X159385000Y-117475000D01*
X161290000Y-103255000D02*
X161290000Y-97790000D01*
X161290000Y-116840000D02*
X161290000Y-103255000D01*
X159385000Y-95885000D02*
X161290000Y-97790000D01*
X157860000Y-95885000D02*
X159385000Y-95885000D01*
X159385000Y-118745000D02*
X161290000Y-116840000D01*
X157860000Y-118745000D02*
X159385000Y-118745000D01*
X167260000Y-120015000D02*
X164465000Y-120015000D01*
X164465000Y-120015000D02*
X162560000Y-118110000D01*
X162560000Y-118110000D02*
X162560000Y-114935000D01*
X162560000Y-114935000D02*
X163195000Y-114300000D01*
X163830000Y-102235000D02*
X163830000Y-99945000D01*
X163195000Y-114300000D02*
X163195000Y-102870000D01*
X163195000Y-102870000D02*
X163830000Y-102235000D01*
X163830000Y-97790000D02*
X163830000Y-99945000D01*
X164465000Y-97155000D02*
X163830000Y-97790000D01*
X167260000Y-97155000D02*
X164465000Y-97155000D01*
X164465000Y-104140000D02*
X164465000Y-114935000D01*
X164465000Y-114935000D02*
X163195000Y-116205000D01*
X166370000Y-103255000D02*
X166370000Y-99695000D01*
X165350000Y-103255000D02*
X164465000Y-104140000D01*
X166370000Y-103255000D02*
X165350000Y-103255000D01*
X168021000Y-98044000D02*
X166370000Y-99695000D01*
X169164000Y-98044000D02*
X168021000Y-98044000D01*
X169545000Y-97663000D02*
X169164000Y-98044000D01*
X169545000Y-96520000D02*
X169545000Y-97663000D01*
X168910000Y-95885000D02*
X169545000Y-96520000D01*
X167260000Y-95885000D02*
X168910000Y-95885000D01*
X163195000Y-117475000D02*
X163195000Y-116205000D01*
X164465000Y-118745000D02*
X163195000Y-117475000D01*
X167260000Y-118745000D02*
X164465000Y-118745000D01*
X149225000Y-98425000D02*
X149225000Y-95250000D01*
X148590000Y-99060000D02*
X149225000Y-98425000D01*
X148590000Y-99945000D02*
X148590000Y-99060000D01*
X148590000Y-94615000D02*
X149225000Y-95250000D01*
X146940000Y-94615000D02*
X148590000Y-94615000D01*
D15*
X171450000Y-96520000D02*
X171450000Y-100965000D01*
D14*
X167260000Y-94615000D02*
X169545000Y-94615000D01*
X169545000Y-94615000D02*
X171450000Y-96520000D01*
D15*
X171450000Y-100965000D02*
X171450000Y-103255000D01*
D14*
X168910000Y-103505000D02*
X168910000Y-99945000D01*
X171450000Y-106045000D02*
X168910000Y-103505000D01*
X171450000Y-116205000D02*
X171450000Y-106045000D01*
X170180000Y-117475000D02*
X171450000Y-116205000D01*
X167260000Y-117475000D02*
X170180000Y-117475000D01*
X145415000Y-117475000D02*
X146940000Y-117475000D01*
X144780000Y-116840000D02*
X145415000Y-117475000D01*
X144780000Y-105410000D02*
X144780000Y-116840000D01*
X146050000Y-104140000D02*
X144780000Y-105410000D01*
X146050000Y-103255000D02*
X146050000Y-104140000D01*
X156210000Y-101600000D02*
X156845000Y-100965000D01*
X156845000Y-100965000D02*
X157480000Y-100965000D01*
X156210000Y-103255000D02*
X156210000Y-101600000D01*
X160020000Y-95250000D02*
X161925000Y-97155000D01*
X161925000Y-97155000D02*
X161925000Y-100330000D01*
X160020000Y-95250000D02*
X160020000Y-83820000D01*
X159385000Y-83185000D02*
X160020000Y-83820000D01*
X157860000Y-83185000D02*
X159385000Y-83185000D01*
X157860000Y-106045000D02*
X157160000Y-106045000D01*
X157160000Y-106045000D02*
X156210000Y-105095000D01*
X156210000Y-105095000D02*
X156210000Y-104764000D01*
X156210000Y-104764000D02*
X156210000Y-103255000D01*
X140085000Y-99945000D02*
X144145000Y-95885000D01*
X138430000Y-99945000D02*
X140085000Y-99945000D01*
X144145000Y-95885000D02*
X144145000Y-85090000D01*
X144145000Y-85090000D02*
X142240000Y-83185000D01*
X142240000Y-83185000D02*
X137540000Y-83185000D01*
X138430000Y-102870000D02*
X138430000Y-99945000D01*
X137540000Y-103760000D02*
X138430000Y-102870000D01*
X137540000Y-106045000D02*
X137540000Y-103760000D01*
G36*
X176143011Y-74812170D02*
X177968247Y-76031753D01*
X179187829Y-77856987D01*
X179630000Y-80079931D01*
X179630000Y-123120069D01*
X179187829Y-125343013D01*
X177968247Y-127168247D01*
X176143011Y-128387830D01*
X173920069Y-128830000D01*
X130879931Y-128830000D01*
X128656987Y-128387829D01*
X126831753Y-127168247D01*
X125612170Y-125343011D01*
X125271953Y-123632619D01*
X128574613Y-123632619D01*
X128914155Y-124454372D01*
X129542321Y-125083636D01*
X130363481Y-125424611D01*
X131252619Y-125425387D01*
X132074372Y-125085845D01*
X132703636Y-124457679D01*
X133044611Y-123636519D01*
X133044614Y-123632619D01*
X171754613Y-123632619D01*
X172094155Y-124454372D01*
X172722321Y-125083636D01*
X173543481Y-125424611D01*
X174432619Y-125425387D01*
X175254372Y-125085845D01*
X175883636Y-124457679D01*
X176224611Y-123636519D01*
X176225387Y-122747381D01*
X175885845Y-121925628D01*
X175257679Y-121296364D01*
X174436519Y-120955389D01*
X173547381Y-120954613D01*
X172725628Y-121294155D01*
X172096364Y-121922321D01*
X171755389Y-122743481D01*
X171754613Y-123632619D01*
X133044614Y-123632619D01*
X133045387Y-122747381D01*
X132705845Y-121925628D01*
X132077679Y-121296364D01*
X131256519Y-120955389D01*
X130367381Y-120954613D01*
X129545628Y-121294155D01*
X128916364Y-121922321D01*
X128575389Y-122743481D01*
X128574613Y-123632619D01*
X125271953Y-123632619D01*
X125170000Y-123120069D01*
X125170000Y-120300750D01*
X135905000Y-120300750D01*
X135905000Y-120441310D01*
X136001673Y-120674699D01*
X136180302Y-120853327D01*
X136413691Y-120950000D01*
X137254250Y-120950000D01*
X137413000Y-120791250D01*
X137413000Y-120142000D01*
X137667000Y-120142000D01*
X137667000Y-120791250D01*
X137825750Y-120950000D01*
X138666309Y-120950000D01*
X138899698Y-120853327D01*
X139078327Y-120674699D01*
X139175000Y-120441310D01*
X139175000Y-120300750D01*
X139016250Y-120142000D01*
X137667000Y-120142000D01*
X137413000Y-120142000D01*
X136063750Y-120142000D01*
X135905000Y-120300750D01*
X125170000Y-120300750D01*
X125170000Y-98690000D01*
X132202560Y-98690000D01*
X132202560Y-101200000D01*
X132246838Y-101435317D01*
X132385910Y-101651441D01*
X132588000Y-101789523D01*
X132588000Y-117475000D01*
X132646004Y-117766605D01*
X132700771Y-117848569D01*
X132811185Y-118013815D01*
X134081184Y-119283815D01*
X134328395Y-119448996D01*
X134620000Y-119507000D01*
X135938837Y-119507000D01*
X135905000Y-119588690D01*
X135905000Y-119729250D01*
X136063750Y-119888000D01*
X137413000Y-119888000D01*
X137413000Y-119868000D01*
X137667000Y-119868000D01*
X137667000Y-119888000D01*
X139016250Y-119888000D01*
X139175000Y-119729250D01*
X139175000Y-119588690D01*
X139085194Y-119371878D01*
X139136431Y-119296890D01*
X139187440Y-119045000D01*
X139187440Y-118445000D01*
X139143162Y-118209683D01*
X139079322Y-118110472D01*
X139136431Y-118026890D01*
X139187440Y-117775000D01*
X139187440Y-117175000D01*
X139148302Y-116967000D01*
X140019370Y-116967000D01*
X140089591Y-117037221D01*
X140215903Y-117342920D01*
X140465764Y-117593218D01*
X140792391Y-117728846D01*
X141146057Y-117729154D01*
X141472920Y-117594097D01*
X141723218Y-117344236D01*
X141858846Y-117017609D01*
X141859154Y-116663943D01*
X141724097Y-116337080D01*
X141474236Y-116086782D01*
X141166720Y-115959090D01*
X140873815Y-115666185D01*
X140854247Y-115653110D01*
X140626605Y-115501004D01*
X140335000Y-115443000D01*
X139145319Y-115443000D01*
X139187440Y-115235000D01*
X139187440Y-114635000D01*
X139148302Y-114427000D01*
X140335000Y-114427000D01*
X140626605Y-114368996D01*
X140873815Y-114203815D01*
X141167221Y-113910409D01*
X141472920Y-113784097D01*
X141723218Y-113534236D01*
X141858846Y-113207609D01*
X141859154Y-112853943D01*
X141724097Y-112527080D01*
X141474236Y-112276782D01*
X141147609Y-112141154D01*
X140793943Y-112140846D01*
X140589148Y-112225465D01*
X140589154Y-112218943D01*
X140454097Y-111892080D01*
X140322236Y-111759989D01*
X140453218Y-111629236D01*
X140588846Y-111302609D01*
X140589154Y-110948943D01*
X140454097Y-110622080D01*
X140204236Y-110371782D01*
X139877609Y-110236154D01*
X139523943Y-110235846D01*
X139216207Y-110363000D01*
X139145319Y-110363000D01*
X139187440Y-110155000D01*
X139187440Y-109555000D01*
X139145297Y-109331028D01*
X139356605Y-109288996D01*
X139603815Y-109123815D01*
X140873815Y-107853816D01*
X141038996Y-107606605D01*
X141061980Y-107491057D01*
X141097000Y-107315000D01*
X141097000Y-106614630D01*
X142748000Y-108265631D01*
X142748000Y-118110000D01*
X142806004Y-118401605D01*
X142865839Y-118491154D01*
X142971185Y-118648815D01*
X144876185Y-120553815D01*
X145123395Y-120718996D01*
X145415000Y-120777000D01*
X145491364Y-120777000D01*
X145688110Y-120911431D01*
X145940000Y-120962440D01*
X147940000Y-120962440D01*
X148175317Y-120918162D01*
X148391441Y-120779090D01*
X148536431Y-120566890D01*
X148587440Y-120315000D01*
X148587440Y-120300750D01*
X156225000Y-120300750D01*
X156225000Y-120441310D01*
X156321673Y-120674699D01*
X156500302Y-120853327D01*
X156733691Y-120950000D01*
X157574250Y-120950000D01*
X157733000Y-120791250D01*
X157733000Y-120142000D01*
X157987000Y-120142000D01*
X157987000Y-120791250D01*
X158145750Y-120950000D01*
X158986309Y-120950000D01*
X159219698Y-120853327D01*
X159398327Y-120674699D01*
X159495000Y-120441310D01*
X159495000Y-120300750D01*
X159336250Y-120142000D01*
X157987000Y-120142000D01*
X157733000Y-120142000D01*
X156383750Y-120142000D01*
X156225000Y-120300750D01*
X148587440Y-120300750D01*
X148587440Y-119715000D01*
X148543162Y-119479683D01*
X148479322Y-119380472D01*
X148536431Y-119296890D01*
X148587440Y-119045000D01*
X148587440Y-118729661D01*
X148720764Y-118863218D01*
X149047391Y-118998846D01*
X149401057Y-118999154D01*
X149708793Y-118872000D01*
X150380553Y-118872000D01*
X150376782Y-118875764D01*
X150241154Y-119202391D01*
X150240846Y-119556057D01*
X150375903Y-119882920D01*
X150625764Y-120133218D01*
X150952391Y-120268846D01*
X151306057Y-120269154D01*
X151613793Y-120142000D01*
X153035000Y-120142000D01*
X153326605Y-120083996D01*
X153573815Y-119918815D01*
X154843815Y-118648816D01*
X154843817Y-118648813D01*
X156212560Y-117280070D01*
X156212560Y-117775000D01*
X156256838Y-118010317D01*
X156320678Y-118109528D01*
X156263569Y-118193110D01*
X156212560Y-118445000D01*
X156212560Y-119045000D01*
X156256838Y-119280317D01*
X156315178Y-119370980D01*
X156225000Y-119588690D01*
X156225000Y-119729250D01*
X156383750Y-119888000D01*
X157733000Y-119888000D01*
X157733000Y-119868000D01*
X157987000Y-119868000D01*
X157987000Y-119888000D01*
X159336250Y-119888000D01*
X159495000Y-119729250D01*
X159495000Y-119588690D01*
X159455365Y-119493003D01*
X159676605Y-119448996D01*
X159923815Y-119283815D01*
X161798000Y-117409630D01*
X161798000Y-118110000D01*
X161856004Y-118401605D01*
X161915839Y-118491154D01*
X162021185Y-118648815D01*
X163926185Y-120553815D01*
X164173395Y-120718996D01*
X164465000Y-120777000D01*
X165811364Y-120777000D01*
X166008110Y-120911431D01*
X166260000Y-120962440D01*
X168260000Y-120962440D01*
X168495317Y-120918162D01*
X168711441Y-120779090D01*
X168856431Y-120566890D01*
X168907440Y-120315000D01*
X168907440Y-119715000D01*
X168863162Y-119479683D01*
X168799322Y-119380472D01*
X168856431Y-119296890D01*
X168907440Y-119045000D01*
X168907440Y-118445000D01*
X168868302Y-118237000D01*
X170180000Y-118237000D01*
X170471605Y-118178996D01*
X170718815Y-118013815D01*
X171988815Y-116743816D01*
X172153996Y-116496605D01*
X172176980Y-116381057D01*
X172212000Y-116205000D01*
X172212000Y-106045000D01*
X172153996Y-105753395D01*
X172042184Y-105586057D01*
X171988815Y-105506184D01*
X171640071Y-105157440D01*
X171950000Y-105157440D01*
X172185317Y-105113162D01*
X172401441Y-104974090D01*
X172546431Y-104761890D01*
X172597440Y-104510000D01*
X172597440Y-102000000D01*
X172553162Y-101764683D01*
X172414090Y-101548559D01*
X172237400Y-101427832D01*
X172237400Y-96520000D01*
X172177463Y-96218675D01*
X172006776Y-95963224D01*
X171898519Y-95890889D01*
X170083815Y-94076185D01*
X170043124Y-94048996D01*
X169836605Y-93911004D01*
X169545000Y-93853000D01*
X168865319Y-93853000D01*
X168907440Y-93645000D01*
X168907440Y-93045000D01*
X168868302Y-92837000D01*
X169696913Y-92837000D01*
X170002391Y-92963846D01*
X170356057Y-92964154D01*
X170682920Y-92829097D01*
X170933218Y-92579236D01*
X171068846Y-92252609D01*
X171069154Y-91898943D01*
X170934097Y-91572080D01*
X170684236Y-91321782D01*
X170357609Y-91186154D01*
X170003943Y-91185846D01*
X169696207Y-91313000D01*
X168865319Y-91313000D01*
X168907440Y-91105000D01*
X168907440Y-90505000D01*
X168863162Y-90269683D01*
X168799322Y-90170472D01*
X168856431Y-90086890D01*
X168907440Y-89835000D01*
X168907440Y-89235000D01*
X168863162Y-88999683D01*
X168799322Y-88900472D01*
X168856431Y-88816890D01*
X168907440Y-88565000D01*
X168907440Y-87965000D01*
X168868302Y-87757000D01*
X169229370Y-87757000D01*
X169299591Y-87827221D01*
X169425903Y-88132920D01*
X169675764Y-88383218D01*
X170002391Y-88518846D01*
X170356057Y-88519154D01*
X170682920Y-88384097D01*
X170933218Y-88134236D01*
X171068846Y-87807609D01*
X171069154Y-87453943D01*
X170934097Y-87127080D01*
X170684236Y-86876782D01*
X170376720Y-86749090D01*
X170083815Y-86456185D01*
X169939864Y-86360000D01*
X169836605Y-86291004D01*
X169545000Y-86233000D01*
X168865319Y-86233000D01*
X168907440Y-86025000D01*
X168907440Y-85425000D01*
X168863162Y-85189683D01*
X168799322Y-85090472D01*
X168856431Y-85006890D01*
X168907440Y-84755000D01*
X168907440Y-84155000D01*
X168863162Y-83919683D01*
X168799322Y-83820472D01*
X168856431Y-83736890D01*
X168907440Y-83485000D01*
X168907440Y-82885000D01*
X168863162Y-82649683D01*
X168724090Y-82433559D01*
X168511890Y-82288569D01*
X168260000Y-82237560D01*
X168022000Y-82237560D01*
X168022000Y-82170000D01*
X167963996Y-81878395D01*
X167798815Y-81631185D01*
X166908815Y-80741185D01*
X166856691Y-80706357D01*
X166661605Y-80576004D01*
X166370000Y-80518000D01*
X147955000Y-80518000D01*
X147663395Y-80576004D01*
X147626968Y-80600344D01*
X147416185Y-80741184D01*
X146401185Y-81756185D01*
X146236004Y-82003395D01*
X146189426Y-82237560D01*
X145940000Y-82237560D01*
X145704683Y-82281838D01*
X145488559Y-82420910D01*
X145343569Y-82633110D01*
X145292560Y-82885000D01*
X145292560Y-83485000D01*
X145336838Y-83720317D01*
X145400678Y-83819528D01*
X145343569Y-83903110D01*
X145292560Y-84155000D01*
X145292560Y-84755000D01*
X145336838Y-84990317D01*
X145400678Y-85089528D01*
X145343569Y-85173110D01*
X145292560Y-85425000D01*
X145292560Y-86025000D01*
X145336838Y-86260317D01*
X145400678Y-86359528D01*
X145343569Y-86443110D01*
X145292560Y-86695000D01*
X145292560Y-87295000D01*
X145336838Y-87530317D01*
X145400678Y-87629528D01*
X145343569Y-87713110D01*
X145292560Y-87965000D01*
X145292560Y-88565000D01*
X145336838Y-88800317D01*
X145400678Y-88899528D01*
X145343569Y-88983110D01*
X145292560Y-89235000D01*
X145292560Y-89835000D01*
X145336838Y-90070317D01*
X145400678Y-90169528D01*
X145343569Y-90253110D01*
X145292560Y-90505000D01*
X145292560Y-91105000D01*
X145336838Y-91340317D01*
X145400678Y-91439528D01*
X145343569Y-91523110D01*
X145292560Y-91775000D01*
X145292560Y-92375000D01*
X145336838Y-92610317D01*
X145400678Y-92709528D01*
X145343569Y-92793110D01*
X145292560Y-93045000D01*
X145292560Y-93645000D01*
X145336838Y-93880317D01*
X145400678Y-93979528D01*
X145343569Y-94063110D01*
X145292560Y-94315000D01*
X145292560Y-94915000D01*
X145334703Y-95138972D01*
X145123395Y-95181004D01*
X145020136Y-95250000D01*
X144907000Y-95325595D01*
X144907000Y-85090000D01*
X144848996Y-84798395D01*
X144683815Y-84551185D01*
X142778815Y-82646185D01*
X142689646Y-82586604D01*
X142531605Y-82481004D01*
X142240000Y-82423000D01*
X138988636Y-82423000D01*
X138791890Y-82288569D01*
X138540000Y-82237560D01*
X136540000Y-82237560D01*
X136304683Y-82281838D01*
X136088559Y-82420910D01*
X135943569Y-82633110D01*
X135892560Y-82885000D01*
X135892560Y-83485000D01*
X135936838Y-83720317D01*
X136000678Y-83819528D01*
X135943569Y-83903110D01*
X135892560Y-84155000D01*
X135892560Y-84755000D01*
X135936838Y-84990317D01*
X136000678Y-85089528D01*
X135943569Y-85173110D01*
X135892560Y-85425000D01*
X135892560Y-86025000D01*
X135931698Y-86233000D01*
X135255000Y-86233000D01*
X134963395Y-86291004D01*
X134864377Y-86357166D01*
X134716185Y-86456184D01*
X134422778Y-86749591D01*
X134117080Y-86875903D01*
X133866782Y-87125764D01*
X133731154Y-87452391D01*
X133730846Y-87806057D01*
X133865903Y-88132920D01*
X134115764Y-88383218D01*
X134442391Y-88518846D01*
X134796057Y-88519154D01*
X135122920Y-88384097D01*
X135373218Y-88134236D01*
X135500910Y-87826720D01*
X135570631Y-87757000D01*
X135934681Y-87757000D01*
X135892560Y-87965000D01*
X135892560Y-88565000D01*
X135936838Y-88800317D01*
X136000678Y-88899528D01*
X135943569Y-88983110D01*
X135892560Y-89235000D01*
X135892560Y-89835000D01*
X135936838Y-90070317D01*
X136000678Y-90169528D01*
X135943569Y-90253110D01*
X135892560Y-90505000D01*
X135892560Y-91105000D01*
X135931698Y-91313000D01*
X134620000Y-91313000D01*
X134328395Y-91371004D01*
X134081184Y-91536185D01*
X132811185Y-92806185D01*
X132646004Y-93053395D01*
X132588000Y-93345000D01*
X132588000Y-97306913D01*
X132461154Y-97612391D01*
X132460846Y-97966057D01*
X132532581Y-98139669D01*
X132398559Y-98225910D01*
X132253569Y-98438110D01*
X132202560Y-98690000D01*
X125170000Y-98690000D01*
X125170000Y-80452619D01*
X128574613Y-80452619D01*
X128914155Y-81274372D01*
X129542321Y-81903636D01*
X130363481Y-82244611D01*
X131252619Y-82245387D01*
X132074372Y-81905845D01*
X132703636Y-81277679D01*
X133044611Y-80456519D01*
X133044614Y-80452619D01*
X171754613Y-80452619D01*
X172094155Y-81274372D01*
X172722321Y-81903636D01*
X173543481Y-82244611D01*
X174432619Y-82245387D01*
X175254372Y-81905845D01*
X175883636Y-81277679D01*
X176224611Y-80456519D01*
X176225387Y-79567381D01*
X175885845Y-78745628D01*
X175257679Y-78116364D01*
X174436519Y-77775389D01*
X173547381Y-77774613D01*
X172725628Y-78114155D01*
X172096364Y-78742321D01*
X171755389Y-79563481D01*
X171754613Y-80452619D01*
X133044614Y-80452619D01*
X133045387Y-79567381D01*
X132705845Y-78745628D01*
X132077679Y-78116364D01*
X131256519Y-77775389D01*
X130367381Y-77774613D01*
X129545628Y-78114155D01*
X128916364Y-78742321D01*
X128575389Y-79563481D01*
X128574613Y-80452619D01*
X125170000Y-80452619D01*
X125170000Y-80079931D01*
X125612170Y-77856989D01*
X126831753Y-76031753D01*
X128656987Y-74812171D01*
X130879931Y-74370000D01*
X173920069Y-74370000D01*
X176143011Y-74812170D01*
X176143011Y-74812170D01*
G37*
X176143011Y-74812170D02*
X177968247Y-76031753D01*
X179187829Y-77856987D01*
X179630000Y-80079931D01*
X179630000Y-123120069D01*
X179187829Y-125343013D01*
X177968247Y-127168247D01*
X176143011Y-128387830D01*
X173920069Y-128830000D01*
X130879931Y-128830000D01*
X128656987Y-128387829D01*
X126831753Y-127168247D01*
X125612170Y-125343011D01*
X125271953Y-123632619D01*
X128574613Y-123632619D01*
X128914155Y-124454372D01*
X129542321Y-125083636D01*
X130363481Y-125424611D01*
X131252619Y-125425387D01*
X132074372Y-125085845D01*
X132703636Y-124457679D01*
X133044611Y-123636519D01*
X133044614Y-123632619D01*
X171754613Y-123632619D01*
X172094155Y-124454372D01*
X172722321Y-125083636D01*
X173543481Y-125424611D01*
X174432619Y-125425387D01*
X175254372Y-125085845D01*
X175883636Y-124457679D01*
X176224611Y-123636519D01*
X176225387Y-122747381D01*
X175885845Y-121925628D01*
X175257679Y-121296364D01*
X174436519Y-120955389D01*
X173547381Y-120954613D01*
X172725628Y-121294155D01*
X172096364Y-121922321D01*
X171755389Y-122743481D01*
X171754613Y-123632619D01*
X133044614Y-123632619D01*
X133045387Y-122747381D01*
X132705845Y-121925628D01*
X132077679Y-121296364D01*
X131256519Y-120955389D01*
X130367381Y-120954613D01*
X129545628Y-121294155D01*
X128916364Y-121922321D01*
X128575389Y-122743481D01*
X128574613Y-123632619D01*
X125271953Y-123632619D01*
X125170000Y-123120069D01*
X125170000Y-120300750D01*
X135905000Y-120300750D01*
X135905000Y-120441310D01*
X136001673Y-120674699D01*
X136180302Y-120853327D01*
X136413691Y-120950000D01*
X137254250Y-120950000D01*
X137413000Y-120791250D01*
X137413000Y-120142000D01*
X137667000Y-120142000D01*
X137667000Y-120791250D01*
X137825750Y-120950000D01*
X138666309Y-120950000D01*
X138899698Y-120853327D01*
X139078327Y-120674699D01*
X139175000Y-120441310D01*
X139175000Y-120300750D01*
X139016250Y-120142000D01*
X137667000Y-120142000D01*
X137413000Y-120142000D01*
X136063750Y-120142000D01*
X135905000Y-120300750D01*
X125170000Y-120300750D01*
X125170000Y-98690000D01*
X132202560Y-98690000D01*
X132202560Y-101200000D01*
X132246838Y-101435317D01*
X132385910Y-101651441D01*
X132588000Y-101789523D01*
X132588000Y-117475000D01*
X132646004Y-117766605D01*
X132700771Y-117848569D01*
X132811185Y-118013815D01*
X134081184Y-119283815D01*
X134328395Y-119448996D01*
X134620000Y-119507000D01*
X135938837Y-119507000D01*
X135905000Y-119588690D01*
X135905000Y-119729250D01*
X136063750Y-119888000D01*
X137413000Y-119888000D01*
X137413000Y-119868000D01*
X137667000Y-119868000D01*
X137667000Y-119888000D01*
X139016250Y-119888000D01*
X139175000Y-119729250D01*
X139175000Y-119588690D01*
X139085194Y-119371878D01*
X139136431Y-119296890D01*
X139187440Y-119045000D01*
X139187440Y-118445000D01*
X139143162Y-118209683D01*
X139079322Y-118110472D01*
X139136431Y-118026890D01*
X139187440Y-117775000D01*
X139187440Y-117175000D01*
X139148302Y-116967000D01*
X140019370Y-116967000D01*
X140089591Y-117037221D01*
X140215903Y-117342920D01*
X140465764Y-117593218D01*
X140792391Y-117728846D01*
X141146057Y-117729154D01*
X141472920Y-117594097D01*
X141723218Y-117344236D01*
X141858846Y-117017609D01*
X141859154Y-116663943D01*
X141724097Y-116337080D01*
X141474236Y-116086782D01*
X141166720Y-115959090D01*
X140873815Y-115666185D01*
X140854247Y-115653110D01*
X140626605Y-115501004D01*
X140335000Y-115443000D01*
X139145319Y-115443000D01*
X139187440Y-115235000D01*
X139187440Y-114635000D01*
X139148302Y-114427000D01*
X140335000Y-114427000D01*
X140626605Y-114368996D01*
X140873815Y-114203815D01*
X141167221Y-113910409D01*
X141472920Y-113784097D01*
X141723218Y-113534236D01*
X141858846Y-113207609D01*
X141859154Y-112853943D01*
X141724097Y-112527080D01*
X141474236Y-112276782D01*
X141147609Y-112141154D01*
X140793943Y-112140846D01*
X140589148Y-112225465D01*
X140589154Y-112218943D01*
X140454097Y-111892080D01*
X140322236Y-111759989D01*
X140453218Y-111629236D01*
X140588846Y-111302609D01*
X140589154Y-110948943D01*
X140454097Y-110622080D01*
X140204236Y-110371782D01*
X139877609Y-110236154D01*
X139523943Y-110235846D01*
X139216207Y-110363000D01*
X139145319Y-110363000D01*
X139187440Y-110155000D01*
X139187440Y-109555000D01*
X139145297Y-109331028D01*
X139356605Y-109288996D01*
X139603815Y-109123815D01*
X140873815Y-107853816D01*
X141038996Y-107606605D01*
X141061980Y-107491057D01*
X141097000Y-107315000D01*
X141097000Y-106614630D01*
X142748000Y-108265631D01*
X142748000Y-118110000D01*
X142806004Y-118401605D01*
X142865839Y-118491154D01*
X142971185Y-118648815D01*
X144876185Y-120553815D01*
X145123395Y-120718996D01*
X145415000Y-120777000D01*
X145491364Y-120777000D01*
X145688110Y-120911431D01*
X145940000Y-120962440D01*
X147940000Y-120962440D01*
X148175317Y-120918162D01*
X148391441Y-120779090D01*
X148536431Y-120566890D01*
X148587440Y-120315000D01*
X148587440Y-120300750D01*
X156225000Y-120300750D01*
X156225000Y-120441310D01*
X156321673Y-120674699D01*
X156500302Y-120853327D01*
X156733691Y-120950000D01*
X157574250Y-120950000D01*
X157733000Y-120791250D01*
X157733000Y-120142000D01*
X157987000Y-120142000D01*
X157987000Y-120791250D01*
X158145750Y-120950000D01*
X158986309Y-120950000D01*
X159219698Y-120853327D01*
X159398327Y-120674699D01*
X159495000Y-120441310D01*
X159495000Y-120300750D01*
X159336250Y-120142000D01*
X157987000Y-120142000D01*
X157733000Y-120142000D01*
X156383750Y-120142000D01*
X156225000Y-120300750D01*
X148587440Y-120300750D01*
X148587440Y-119715000D01*
X148543162Y-119479683D01*
X148479322Y-119380472D01*
X148536431Y-119296890D01*
X148587440Y-119045000D01*
X148587440Y-118729661D01*
X148720764Y-118863218D01*
X149047391Y-118998846D01*
X149401057Y-118999154D01*
X149708793Y-118872000D01*
X150380553Y-118872000D01*
X150376782Y-118875764D01*
X150241154Y-119202391D01*
X150240846Y-119556057D01*
X150375903Y-119882920D01*
X150625764Y-120133218D01*
X150952391Y-120268846D01*
X151306057Y-120269154D01*
X151613793Y-120142000D01*
X153035000Y-120142000D01*
X153326605Y-120083996D01*
X153573815Y-119918815D01*
X154843815Y-118648816D01*
X154843817Y-118648813D01*
X156212560Y-117280070D01*
X156212560Y-117775000D01*
X156256838Y-118010317D01*
X156320678Y-118109528D01*
X156263569Y-118193110D01*
X156212560Y-118445000D01*
X156212560Y-119045000D01*
X156256838Y-119280317D01*
X156315178Y-119370980D01*
X156225000Y-119588690D01*
X156225000Y-119729250D01*
X156383750Y-119888000D01*
X157733000Y-119888000D01*
X157733000Y-119868000D01*
X157987000Y-119868000D01*
X157987000Y-119888000D01*
X159336250Y-119888000D01*
X159495000Y-119729250D01*
X159495000Y-119588690D01*
X159455365Y-119493003D01*
X159676605Y-119448996D01*
X159923815Y-119283815D01*
X161798000Y-117409630D01*
X161798000Y-118110000D01*
X161856004Y-118401605D01*
X161915839Y-118491154D01*
X162021185Y-118648815D01*
X163926185Y-120553815D01*
X164173395Y-120718996D01*
X164465000Y-120777000D01*
X165811364Y-120777000D01*
X166008110Y-120911431D01*
X166260000Y-120962440D01*
X168260000Y-120962440D01*
X168495317Y-120918162D01*
X168711441Y-120779090D01*
X168856431Y-120566890D01*
X168907440Y-120315000D01*
X168907440Y-119715000D01*
X168863162Y-119479683D01*
X168799322Y-119380472D01*
X168856431Y-119296890D01*
X168907440Y-119045000D01*
X168907440Y-118445000D01*
X168868302Y-118237000D01*
X170180000Y-118237000D01*
X170471605Y-118178996D01*
X170718815Y-118013815D01*
X171988815Y-116743816D01*
X172153996Y-116496605D01*
X172176980Y-116381057D01*
X172212000Y-116205000D01*
X172212000Y-106045000D01*
X172153996Y-105753395D01*
X172042184Y-105586057D01*
X171988815Y-105506184D01*
X171640071Y-105157440D01*
X171950000Y-105157440D01*
X172185317Y-105113162D01*
X172401441Y-104974090D01*
X172546431Y-104761890D01*
X172597440Y-104510000D01*
X172597440Y-102000000D01*
X172553162Y-101764683D01*
X172414090Y-101548559D01*
X172237400Y-101427832D01*
X172237400Y-96520000D01*
X172177463Y-96218675D01*
X172006776Y-95963224D01*
X171898519Y-95890889D01*
X170083815Y-94076185D01*
X170043124Y-94048996D01*
X169836605Y-93911004D01*
X169545000Y-93853000D01*
X168865319Y-93853000D01*
X168907440Y-93645000D01*
X168907440Y-93045000D01*
X168868302Y-92837000D01*
X169696913Y-92837000D01*
X170002391Y-92963846D01*
X170356057Y-92964154D01*
X170682920Y-92829097D01*
X170933218Y-92579236D01*
X171068846Y-92252609D01*
X171069154Y-91898943D01*
X170934097Y-91572080D01*
X170684236Y-91321782D01*
X170357609Y-91186154D01*
X170003943Y-91185846D01*
X169696207Y-91313000D01*
X168865319Y-91313000D01*
X168907440Y-91105000D01*
X168907440Y-90505000D01*
X168863162Y-90269683D01*
X168799322Y-90170472D01*
X168856431Y-90086890D01*
X168907440Y-89835000D01*
X168907440Y-89235000D01*
X168863162Y-88999683D01*
X168799322Y-88900472D01*
X168856431Y-88816890D01*
X168907440Y-88565000D01*
X168907440Y-87965000D01*
X168868302Y-87757000D01*
X169229370Y-87757000D01*
X169299591Y-87827221D01*
X169425903Y-88132920D01*
X169675764Y-88383218D01*
X170002391Y-88518846D01*
X170356057Y-88519154D01*
X170682920Y-88384097D01*
X170933218Y-88134236D01*
X171068846Y-87807609D01*
X171069154Y-87453943D01*
X170934097Y-87127080D01*
X170684236Y-86876782D01*
X170376720Y-86749090D01*
X170083815Y-86456185D01*
X169939864Y-86360000D01*
X169836605Y-86291004D01*
X169545000Y-86233000D01*
X168865319Y-86233000D01*
X168907440Y-86025000D01*
X168907440Y-85425000D01*
X168863162Y-85189683D01*
X168799322Y-85090472D01*
X168856431Y-85006890D01*
X168907440Y-84755000D01*
X168907440Y-84155000D01*
X168863162Y-83919683D01*
X168799322Y-83820472D01*
X168856431Y-83736890D01*
X168907440Y-83485000D01*
X168907440Y-82885000D01*
X168863162Y-82649683D01*
X168724090Y-82433559D01*
X168511890Y-82288569D01*
X168260000Y-82237560D01*
X168022000Y-82237560D01*
X168022000Y-82170000D01*
X167963996Y-81878395D01*
X167798815Y-81631185D01*
X166908815Y-80741185D01*
X166856691Y-80706357D01*
X166661605Y-80576004D01*
X166370000Y-80518000D01*
X147955000Y-80518000D01*
X147663395Y-80576004D01*
X147626968Y-80600344D01*
X147416185Y-80741184D01*
X146401185Y-81756185D01*
X146236004Y-82003395D01*
X146189426Y-82237560D01*
X145940000Y-82237560D01*
X145704683Y-82281838D01*
X145488559Y-82420910D01*
X145343569Y-82633110D01*
X145292560Y-82885000D01*
X145292560Y-83485000D01*
X145336838Y-83720317D01*
X145400678Y-83819528D01*
X145343569Y-83903110D01*
X145292560Y-84155000D01*
X145292560Y-84755000D01*
X145336838Y-84990317D01*
X145400678Y-85089528D01*
X145343569Y-85173110D01*
X145292560Y-85425000D01*
X145292560Y-86025000D01*
X145336838Y-86260317D01*
X145400678Y-86359528D01*
X145343569Y-86443110D01*
X145292560Y-86695000D01*
X145292560Y-87295000D01*
X145336838Y-87530317D01*
X145400678Y-87629528D01*
X145343569Y-87713110D01*
X145292560Y-87965000D01*
X145292560Y-88565000D01*
X145336838Y-88800317D01*
X145400678Y-88899528D01*
X145343569Y-88983110D01*
X145292560Y-89235000D01*
X145292560Y-89835000D01*
X145336838Y-90070317D01*
X145400678Y-90169528D01*
X145343569Y-90253110D01*
X145292560Y-90505000D01*
X145292560Y-91105000D01*
X145336838Y-91340317D01*
X145400678Y-91439528D01*
X145343569Y-91523110D01*
X145292560Y-91775000D01*
X145292560Y-92375000D01*
X145336838Y-92610317D01*
X145400678Y-92709528D01*
X145343569Y-92793110D01*
X145292560Y-93045000D01*
X145292560Y-93645000D01*
X145336838Y-93880317D01*
X145400678Y-93979528D01*
X145343569Y-94063110D01*
X145292560Y-94315000D01*
X145292560Y-94915000D01*
X145334703Y-95138972D01*
X145123395Y-95181004D01*
X145020136Y-95250000D01*
X144907000Y-95325595D01*
X144907000Y-85090000D01*
X144848996Y-84798395D01*
X144683815Y-84551185D01*
X142778815Y-82646185D01*
X142689646Y-82586604D01*
X142531605Y-82481004D01*
X142240000Y-82423000D01*
X138988636Y-82423000D01*
X138791890Y-82288569D01*
X138540000Y-82237560D01*
X136540000Y-82237560D01*
X136304683Y-82281838D01*
X136088559Y-82420910D01*
X135943569Y-82633110D01*
X135892560Y-82885000D01*
X135892560Y-83485000D01*
X135936838Y-83720317D01*
X136000678Y-83819528D01*
X135943569Y-83903110D01*
X135892560Y-84155000D01*
X135892560Y-84755000D01*
X135936838Y-84990317D01*
X136000678Y-85089528D01*
X135943569Y-85173110D01*
X135892560Y-85425000D01*
X135892560Y-86025000D01*
X135931698Y-86233000D01*
X135255000Y-86233000D01*
X134963395Y-86291004D01*
X134864377Y-86357166D01*
X134716185Y-86456184D01*
X134422778Y-86749591D01*
X134117080Y-86875903D01*
X133866782Y-87125764D01*
X133731154Y-87452391D01*
X133730846Y-87806057D01*
X133865903Y-88132920D01*
X134115764Y-88383218D01*
X134442391Y-88518846D01*
X134796057Y-88519154D01*
X135122920Y-88384097D01*
X135373218Y-88134236D01*
X135500910Y-87826720D01*
X135570631Y-87757000D01*
X135934681Y-87757000D01*
X135892560Y-87965000D01*
X135892560Y-88565000D01*
X135936838Y-88800317D01*
X136000678Y-88899528D01*
X135943569Y-88983110D01*
X135892560Y-89235000D01*
X135892560Y-89835000D01*
X135936838Y-90070317D01*
X136000678Y-90169528D01*
X135943569Y-90253110D01*
X135892560Y-90505000D01*
X135892560Y-91105000D01*
X135931698Y-91313000D01*
X134620000Y-91313000D01*
X134328395Y-91371004D01*
X134081184Y-91536185D01*
X132811185Y-92806185D01*
X132646004Y-93053395D01*
X132588000Y-93345000D01*
X132588000Y-97306913D01*
X132461154Y-97612391D01*
X132460846Y-97966057D01*
X132532581Y-98139669D01*
X132398559Y-98225910D01*
X132253569Y-98438110D01*
X132202560Y-98690000D01*
X125170000Y-98690000D01*
X125170000Y-80452619D01*
X128574613Y-80452619D01*
X128914155Y-81274372D01*
X129542321Y-81903636D01*
X130363481Y-82244611D01*
X131252619Y-82245387D01*
X132074372Y-81905845D01*
X132703636Y-81277679D01*
X133044611Y-80456519D01*
X133044614Y-80452619D01*
X171754613Y-80452619D01*
X172094155Y-81274372D01*
X172722321Y-81903636D01*
X173543481Y-82244611D01*
X174432619Y-82245387D01*
X175254372Y-81905845D01*
X175883636Y-81277679D01*
X176224611Y-80456519D01*
X176225387Y-79567381D01*
X175885845Y-78745628D01*
X175257679Y-78116364D01*
X174436519Y-77775389D01*
X173547381Y-77774613D01*
X172725628Y-78114155D01*
X172096364Y-78742321D01*
X171755389Y-79563481D01*
X171754613Y-80452619D01*
X133044614Y-80452619D01*
X133045387Y-79567381D01*
X132705845Y-78745628D01*
X132077679Y-78116364D01*
X131256519Y-77775389D01*
X130367381Y-77774613D01*
X129545628Y-78114155D01*
X128916364Y-78742321D01*
X128575389Y-79563481D01*
X128574613Y-80452619D01*
X125170000Y-80452619D01*
X125170000Y-80079931D01*
X125612170Y-77856989D01*
X126831753Y-76031753D01*
X128656987Y-74812171D01*
X130879931Y-74370000D01*
X173920069Y-74370000D01*
X176143011Y-74812170D01*
G36*
X154813000Y-98425000D02*
X154871004Y-98716605D01*
X154930736Y-98806000D01*
X155036185Y-98963815D01*
X156421502Y-100349132D01*
X156306185Y-100426184D01*
X155671185Y-101061185D01*
X155506004Y-101308395D01*
X155488945Y-101394154D01*
X155474683Y-101396838D01*
X155258559Y-101535910D01*
X155113569Y-101748110D01*
X155062560Y-102000000D01*
X155062560Y-104510000D01*
X155106838Y-104745317D01*
X155245910Y-104961441D01*
X155449041Y-105100235D01*
X155506004Y-105386605D01*
X155639274Y-105586057D01*
X155671185Y-105633815D01*
X156212560Y-106175190D01*
X156212560Y-106239930D01*
X154843815Y-104871185D01*
X154699864Y-104775000D01*
X154596605Y-104706004D01*
X154305000Y-104648000D01*
X152249494Y-104648000D01*
X152277440Y-104510000D01*
X152277440Y-104017000D01*
X152650000Y-104017000D01*
X152941605Y-103958996D01*
X153188815Y-103793815D01*
X153232221Y-103750409D01*
X153537920Y-103624097D01*
X153788218Y-103374236D01*
X153923846Y-103047609D01*
X153924154Y-102693943D01*
X153789097Y-102367080D01*
X153539236Y-102116782D01*
X153212609Y-101981154D01*
X152858943Y-101980846D01*
X152532080Y-102115903D01*
X152281782Y-102365764D01*
X152277440Y-102376221D01*
X152277440Y-102000000D01*
X152233162Y-101764683D01*
X152094090Y-101548559D01*
X151881890Y-101403569D01*
X151630000Y-101352560D01*
X150630000Y-101352560D01*
X150394683Y-101396838D01*
X150178559Y-101535910D01*
X150033569Y-101748110D01*
X149982560Y-102000000D01*
X149982560Y-102493000D01*
X149475000Y-102493000D01*
X149183395Y-102551004D01*
X148936185Y-102716185D01*
X148051185Y-103601185D01*
X147886004Y-103848395D01*
X147828000Y-104140000D01*
X147828000Y-104779370D01*
X147509810Y-105097560D01*
X146809563Y-105097560D01*
X147001441Y-104974090D01*
X147146431Y-104761890D01*
X147197440Y-104510000D01*
X147197440Y-102000000D01*
X147153162Y-101764683D01*
X147014090Y-101548559D01*
X146801890Y-101403569D01*
X146550000Y-101352560D01*
X146105071Y-101352560D01*
X147442560Y-100015071D01*
X147442560Y-101200000D01*
X147486838Y-101435317D01*
X147625910Y-101651441D01*
X147838110Y-101796431D01*
X148090000Y-101847440D01*
X149090000Y-101847440D01*
X149325317Y-101803162D01*
X149541441Y-101664090D01*
X149686431Y-101451890D01*
X149737440Y-101200000D01*
X149737440Y-100230750D01*
X152535000Y-100230750D01*
X152535000Y-101326310D01*
X152631673Y-101559699D01*
X152810302Y-101738327D01*
X153043691Y-101835000D01*
X153384250Y-101835000D01*
X153543000Y-101676250D01*
X153543000Y-100072000D01*
X153797000Y-100072000D01*
X153797000Y-101676250D01*
X153955750Y-101835000D01*
X154296309Y-101835000D01*
X154529698Y-101738327D01*
X154708327Y-101559699D01*
X154805000Y-101326310D01*
X154805000Y-100230750D01*
X154646250Y-100072000D01*
X153797000Y-100072000D01*
X153543000Y-100072000D01*
X152693750Y-100072000D01*
X152535000Y-100230750D01*
X149737440Y-100230750D01*
X149737440Y-98990191D01*
X149763816Y-98963815D01*
X149908021Y-98747996D01*
X149928996Y-98716605D01*
X149987000Y-98425000D01*
X149987000Y-98349406D01*
X150104377Y-98427834D01*
X150203395Y-98493996D01*
X150495000Y-98552000D01*
X150646913Y-98552000D01*
X150898792Y-98656589D01*
X151010903Y-98927920D01*
X151260764Y-99178218D01*
X151587391Y-99313846D01*
X151941057Y-99314154D01*
X152267920Y-99179097D01*
X152518218Y-98929236D01*
X152535000Y-98888821D01*
X152535000Y-99659250D01*
X152693750Y-99818000D01*
X153543000Y-99818000D01*
X153543000Y-98213750D01*
X153797000Y-98213750D01*
X153797000Y-99818000D01*
X154646250Y-99818000D01*
X154805000Y-99659250D01*
X154805000Y-98563690D01*
X154708327Y-98330301D01*
X154529698Y-98151673D01*
X154296309Y-98055000D01*
X153955750Y-98055000D01*
X153797000Y-98213750D01*
X153543000Y-98213750D01*
X153384250Y-98055000D01*
X153043691Y-98055000D01*
X152810302Y-98151673D01*
X152654103Y-98307871D01*
X152654154Y-98248943D01*
X152575074Y-98057556D01*
X154813000Y-95819631D01*
X154813000Y-98425000D01*
X154813000Y-98425000D01*
G37*
X154813000Y-98425000D02*
X154871004Y-98716605D01*
X154930736Y-98806000D01*
X155036185Y-98963815D01*
X156421502Y-100349132D01*
X156306185Y-100426184D01*
X155671185Y-101061185D01*
X155506004Y-101308395D01*
X155488945Y-101394154D01*
X155474683Y-101396838D01*
X155258559Y-101535910D01*
X155113569Y-101748110D01*
X155062560Y-102000000D01*
X155062560Y-104510000D01*
X155106838Y-104745317D01*
X155245910Y-104961441D01*
X155449041Y-105100235D01*
X155506004Y-105386605D01*
X155639274Y-105586057D01*
X155671185Y-105633815D01*
X156212560Y-106175190D01*
X156212560Y-106239930D01*
X154843815Y-104871185D01*
X154699864Y-104775000D01*
X154596605Y-104706004D01*
X154305000Y-104648000D01*
X152249494Y-104648000D01*
X152277440Y-104510000D01*
X152277440Y-104017000D01*
X152650000Y-104017000D01*
X152941605Y-103958996D01*
X153188815Y-103793815D01*
X153232221Y-103750409D01*
X153537920Y-103624097D01*
X153788218Y-103374236D01*
X153923846Y-103047609D01*
X153924154Y-102693943D01*
X153789097Y-102367080D01*
X153539236Y-102116782D01*
X153212609Y-101981154D01*
X152858943Y-101980846D01*
X152532080Y-102115903D01*
X152281782Y-102365764D01*
X152277440Y-102376221D01*
X152277440Y-102000000D01*
X152233162Y-101764683D01*
X152094090Y-101548559D01*
X151881890Y-101403569D01*
X151630000Y-101352560D01*
X150630000Y-101352560D01*
X150394683Y-101396838D01*
X150178559Y-101535910D01*
X150033569Y-101748110D01*
X149982560Y-102000000D01*
X149982560Y-102493000D01*
X149475000Y-102493000D01*
X149183395Y-102551004D01*
X148936185Y-102716185D01*
X148051185Y-103601185D01*
X147886004Y-103848395D01*
X147828000Y-104140000D01*
X147828000Y-104779370D01*
X147509810Y-105097560D01*
X146809563Y-105097560D01*
X147001441Y-104974090D01*
X147146431Y-104761890D01*
X147197440Y-104510000D01*
X147197440Y-102000000D01*
X147153162Y-101764683D01*
X147014090Y-101548559D01*
X146801890Y-101403569D01*
X146550000Y-101352560D01*
X146105071Y-101352560D01*
X147442560Y-100015071D01*
X147442560Y-101200000D01*
X147486838Y-101435317D01*
X147625910Y-101651441D01*
X147838110Y-101796431D01*
X148090000Y-101847440D01*
X149090000Y-101847440D01*
X149325317Y-101803162D01*
X149541441Y-101664090D01*
X149686431Y-101451890D01*
X149737440Y-101200000D01*
X149737440Y-100230750D01*
X152535000Y-100230750D01*
X152535000Y-101326310D01*
X152631673Y-101559699D01*
X152810302Y-101738327D01*
X153043691Y-101835000D01*
X153384250Y-101835000D01*
X153543000Y-101676250D01*
X153543000Y-100072000D01*
X153797000Y-100072000D01*
X153797000Y-101676250D01*
X153955750Y-101835000D01*
X154296309Y-101835000D01*
X154529698Y-101738327D01*
X154708327Y-101559699D01*
X154805000Y-101326310D01*
X154805000Y-100230750D01*
X154646250Y-100072000D01*
X153797000Y-100072000D01*
X153543000Y-100072000D01*
X152693750Y-100072000D01*
X152535000Y-100230750D01*
X149737440Y-100230750D01*
X149737440Y-98990191D01*
X149763816Y-98963815D01*
X149908021Y-98747996D01*
X149928996Y-98716605D01*
X149987000Y-98425000D01*
X149987000Y-98349406D01*
X150104377Y-98427834D01*
X150203395Y-98493996D01*
X150495000Y-98552000D01*
X150646913Y-98552000D01*
X150898792Y-98656589D01*
X151010903Y-98927920D01*
X151260764Y-99178218D01*
X151587391Y-99313846D01*
X151941057Y-99314154D01*
X152267920Y-99179097D01*
X152518218Y-98929236D01*
X152535000Y-98888821D01*
X152535000Y-99659250D01*
X152693750Y-99818000D01*
X153543000Y-99818000D01*
X153543000Y-98213750D01*
X153797000Y-98213750D01*
X153797000Y-99818000D01*
X154646250Y-99818000D01*
X154805000Y-99659250D01*
X154805000Y-98563690D01*
X154708327Y-98330301D01*
X154529698Y-98151673D01*
X154296309Y-98055000D01*
X153955750Y-98055000D01*
X153797000Y-98213750D01*
X153543000Y-98213750D01*
X153384250Y-98055000D01*
X153043691Y-98055000D01*
X152810302Y-98151673D01*
X152654103Y-98307871D01*
X152654154Y-98248943D01*
X152575074Y-98057556D01*
X154813000Y-95819631D01*
X154813000Y-98425000D01*
G36*
X135905000Y-96728690D02*
X135905000Y-96869250D01*
X136063750Y-97028000D01*
X137413000Y-97028000D01*
X137413000Y-97008000D01*
X137667000Y-97008000D01*
X137667000Y-97028000D01*
X137687000Y-97028000D01*
X137687000Y-97282000D01*
X137667000Y-97282000D01*
X137667000Y-97282199D01*
X137567454Y-97302000D01*
X137413000Y-97302000D01*
X137413000Y-97282000D01*
X136063750Y-97282000D01*
X135905000Y-97440750D01*
X135905000Y-97581310D01*
X136001673Y-97814699D01*
X136180302Y-97993327D01*
X136413691Y-98090000D01*
X136544369Y-98090000D01*
X135351185Y-99283185D01*
X135186004Y-99530395D01*
X135128000Y-99822000D01*
X135128000Y-101414008D01*
X134938559Y-101535910D01*
X134793569Y-101748110D01*
X134742560Y-102000000D01*
X134742560Y-104209810D01*
X134112000Y-104840370D01*
X134112000Y-101785992D01*
X134301441Y-101664090D01*
X134446431Y-101451890D01*
X134497440Y-101200000D01*
X134497440Y-98990190D01*
X135158815Y-98328816D01*
X135323996Y-98081605D01*
X135331476Y-98044000D01*
X135382000Y-97790000D01*
X135382000Y-96835630D01*
X135570631Y-96647000D01*
X135938837Y-96647000D01*
X135905000Y-96728690D01*
X135905000Y-96728690D01*
G37*
X135905000Y-96728690D02*
X135905000Y-96869250D01*
X136063750Y-97028000D01*
X137413000Y-97028000D01*
X137413000Y-97008000D01*
X137667000Y-97008000D01*
X137667000Y-97028000D01*
X137687000Y-97028000D01*
X137687000Y-97282000D01*
X137667000Y-97282000D01*
X137667000Y-97282199D01*
X137567454Y-97302000D01*
X137413000Y-97302000D01*
X137413000Y-97282000D01*
X136063750Y-97282000D01*
X135905000Y-97440750D01*
X135905000Y-97581310D01*
X136001673Y-97814699D01*
X136180302Y-97993327D01*
X136413691Y-98090000D01*
X136544369Y-98090000D01*
X135351185Y-99283185D01*
X135186004Y-99530395D01*
X135128000Y-99822000D01*
X135128000Y-101414008D01*
X134938559Y-101535910D01*
X134793569Y-101748110D01*
X134742560Y-102000000D01*
X134742560Y-104209810D01*
X134112000Y-104840370D01*
X134112000Y-101785992D01*
X134301441Y-101664090D01*
X134446431Y-101451890D01*
X134497440Y-101200000D01*
X134497440Y-98990190D01*
X135158815Y-98328816D01*
X135323996Y-98081605D01*
X135331476Y-98044000D01*
X135382000Y-97790000D01*
X135382000Y-96835630D01*
X135570631Y-96647000D01*
X135938837Y-96647000D01*
X135905000Y-96728690D01*
G36*
X160528000Y-98105630D02*
X160528000Y-101414008D01*
X160338559Y-101535910D01*
X160193569Y-101748110D01*
X160142560Y-102000000D01*
X160142560Y-104454929D01*
X159512000Y-103824370D01*
X159512000Y-101785992D01*
X159701441Y-101664090D01*
X159846431Y-101451890D01*
X159897440Y-101200000D01*
X159897440Y-98690000D01*
X159853162Y-98454683D01*
X159714090Y-98238559D01*
X159501890Y-98093569D01*
X159250000Y-98042560D01*
X159100839Y-98042560D01*
X159219698Y-97993327D01*
X159398327Y-97814699D01*
X159495000Y-97581310D01*
X159495000Y-97440750D01*
X159336250Y-97282000D01*
X157987000Y-97282000D01*
X157987000Y-97931250D01*
X158122332Y-98066582D01*
X158014683Y-98086838D01*
X157798559Y-98225910D01*
X157653569Y-98438110D01*
X157602560Y-98690000D01*
X157602560Y-99183000D01*
X157410631Y-99183000D01*
X156337000Y-98109370D01*
X156337000Y-97830026D01*
X156500302Y-97993327D01*
X156733691Y-98090000D01*
X157574250Y-98090000D01*
X157733000Y-97931250D01*
X157733000Y-97282000D01*
X157713000Y-97282000D01*
X157713000Y-97028000D01*
X157733000Y-97028000D01*
X157733000Y-97008000D01*
X157987000Y-97008000D01*
X157987000Y-97028000D01*
X159336250Y-97028000D01*
X159393310Y-96970940D01*
X160528000Y-98105630D01*
X160528000Y-98105630D01*
G37*
X160528000Y-98105630D02*
X160528000Y-101414008D01*
X160338559Y-101535910D01*
X160193569Y-101748110D01*
X160142560Y-102000000D01*
X160142560Y-104454929D01*
X159512000Y-103824370D01*
X159512000Y-101785992D01*
X159701441Y-101664090D01*
X159846431Y-101451890D01*
X159897440Y-101200000D01*
X159897440Y-98690000D01*
X159853162Y-98454683D01*
X159714090Y-98238559D01*
X159501890Y-98093569D01*
X159250000Y-98042560D01*
X159100839Y-98042560D01*
X159219698Y-97993327D01*
X159398327Y-97814699D01*
X159495000Y-97581310D01*
X159495000Y-97440750D01*
X159336250Y-97282000D01*
X157987000Y-97282000D01*
X157987000Y-97931250D01*
X158122332Y-98066582D01*
X158014683Y-98086838D01*
X157798559Y-98225910D01*
X157653569Y-98438110D01*
X157602560Y-98690000D01*
X157602560Y-99183000D01*
X157410631Y-99183000D01*
X156337000Y-98109370D01*
X156337000Y-97830026D01*
X156500302Y-97993327D01*
X156733691Y-98090000D01*
X157574250Y-98090000D01*
X157733000Y-97931250D01*
X157733000Y-97282000D01*
X157713000Y-97282000D01*
X157713000Y-97028000D01*
X157733000Y-97028000D01*
X157733000Y-97008000D01*
X157987000Y-97008000D01*
X157987000Y-97028000D01*
X159336250Y-97028000D01*
X159393310Y-96970940D01*
X160528000Y-98105630D01*
G36*
X162682560Y-101200000D02*
X162726838Y-101435317D01*
X162865910Y-101651441D01*
X163068000Y-101789523D01*
X163068000Y-101919369D01*
X162656185Y-102331185D01*
X162491004Y-102578395D01*
X162437440Y-102847679D01*
X162437440Y-102000000D01*
X162393162Y-101764683D01*
X162254090Y-101548559D01*
X162052000Y-101410477D01*
X162052000Y-101219111D01*
X162101057Y-101219154D01*
X162427920Y-101084097D01*
X162678218Y-100834236D01*
X162682560Y-100823779D01*
X162682560Y-101200000D01*
X162682560Y-101200000D01*
G37*
X162682560Y-101200000D02*
X162726838Y-101435317D01*
X162865910Y-101651441D01*
X163068000Y-101789523D01*
X163068000Y-101919369D01*
X162656185Y-102331185D01*
X162491004Y-102578395D01*
X162437440Y-102847679D01*
X162437440Y-102000000D01*
X162393162Y-101764683D01*
X162254090Y-101548559D01*
X162052000Y-101410477D01*
X162052000Y-101219111D01*
X162101057Y-101219154D01*
X162427920Y-101084097D01*
X162678218Y-100834236D01*
X162682560Y-100823779D01*
X162682560Y-101200000D01*
M02*
