G04 #@! TF.FileFunction,Copper,L2,Bot,Signal*
%FSLAX46Y46*%
G04 Gerber Fmt 4.6, Leading zero omitted, Abs format (unit mm)*
G04 Created by KiCad (PCBNEW (2015-11-29 BZR 6336)-product) date vrijdag 15 april 2016 20:54:22*
%MOMM*%
G01*
G04 APERTURE LIST*
%ADD10C,0.100000*%
%ADD11R,1.470000X1.470000*%
%ADD12C,0.508000*%
%ADD13C,0.254000*%
%ADD14C,0.304800*%
G04 APERTURE END LIST*
D10*
D11*
X134620000Y-83820000D03*
X139700000Y-83820000D03*
X144780000Y-83820000D03*
X149860000Y-83820000D03*
X154940000Y-83820000D03*
X160020000Y-83820000D03*
X165100000Y-83820000D03*
X170180000Y-83820000D03*
X134620000Y-88900000D03*
X139700000Y-88900000D03*
X144780000Y-88900000D03*
X149860000Y-88900000D03*
X154940000Y-88900000D03*
X160020000Y-88900000D03*
X165100000Y-88900000D03*
X170180000Y-88900000D03*
X134620000Y-93980000D03*
X139700000Y-93980000D03*
X144780000Y-93980000D03*
X149860000Y-93980000D03*
X154940000Y-93980000D03*
X160020000Y-93980000D03*
X165100000Y-93980000D03*
X170180000Y-93980000D03*
X134620000Y-99060000D03*
X139700000Y-99060000D03*
X144780000Y-99060000D03*
X149860000Y-99060000D03*
X154940000Y-99060000D03*
X160020000Y-99060000D03*
X165100000Y-99060000D03*
X170180000Y-99060000D03*
X134620000Y-104140000D03*
X139700000Y-104140000D03*
X144780000Y-104140000D03*
X149860000Y-104140000D03*
X154940000Y-104140000D03*
X160020000Y-104140000D03*
X165100000Y-104140000D03*
X170180000Y-104140000D03*
X134620000Y-109220000D03*
X139700000Y-109220000D03*
X144780000Y-109220000D03*
X149860000Y-109220000D03*
X154940000Y-109220000D03*
X160020000Y-109220000D03*
X165100000Y-109220000D03*
X170180000Y-109220000D03*
X134620000Y-114300000D03*
X139700000Y-114300000D03*
X144780000Y-114300000D03*
X149860000Y-114300000D03*
X154940000Y-114300000D03*
X160020000Y-114300000D03*
X165100000Y-114300000D03*
X170180000Y-114300000D03*
X134620000Y-119380000D03*
X139700000Y-119380000D03*
X144780000Y-119380000D03*
X149860000Y-119380000D03*
X154940000Y-119380000D03*
X160020000Y-119380000D03*
X165100000Y-119380000D03*
X170180000Y-119380000D03*
D12*
X151765000Y-85725000D03*
X139700000Y-85090000D03*
X152400000Y-85090000D03*
X142240000Y-84455000D03*
X163830000Y-85090000D03*
X151765000Y-84455000D03*
X165100000Y-85090000D03*
X151765000Y-86995000D03*
X134620000Y-87630000D03*
X152400000Y-86360000D03*
X143510000Y-88900000D03*
X151765000Y-88265000D03*
X152400000Y-88900000D03*
X162560000Y-88900000D03*
X152400000Y-87630000D03*
X170180000Y-87630000D03*
X151130000Y-95885000D03*
X139700000Y-90170000D03*
X150495000Y-95250000D03*
X140335000Y-90805000D03*
X163830000Y-92710000D03*
X153035000Y-91440000D03*
X165100000Y-90170000D03*
X152400000Y-92075000D03*
X133350000Y-97790000D03*
X150495000Y-96520000D03*
X142240000Y-96520000D03*
X151765000Y-98425000D03*
X151130000Y-97790000D03*
X163830000Y-96520000D03*
X151765000Y-92710000D03*
X170180000Y-92075000D03*
X151130000Y-106045000D03*
X139700000Y-105410000D03*
X150495000Y-105410000D03*
X140335000Y-106045000D03*
X165100000Y-106680000D03*
X151765000Y-107315000D03*
X169545000Y-106045000D03*
X151130000Y-107950000D03*
X134620000Y-107950000D03*
X150495000Y-106680000D03*
X139700000Y-111125000D03*
X151765000Y-111125000D03*
X154940000Y-110490000D03*
X169545000Y-111125000D03*
X151765000Y-108585000D03*
X170180000Y-110490000D03*
X149860000Y-117475000D03*
X139700000Y-112395000D03*
X149225000Y-116840000D03*
X140970000Y-113030000D03*
X170180000Y-112395000D03*
X153035000Y-114300000D03*
X165100000Y-113030000D03*
X152400000Y-114935000D03*
X134620000Y-116205000D03*
X149225000Y-118110000D03*
X140970000Y-116840000D03*
X151130000Y-119380000D03*
X149860000Y-116205000D03*
X163830000Y-116840000D03*
X151765000Y-115570000D03*
X170180000Y-116205000D03*
X162560000Y-101600000D03*
X154940000Y-100965000D03*
X135890000Y-98425000D03*
X156845000Y-98425000D03*
X162560000Y-97790000D03*
X167894000Y-103124000D03*
X153035000Y-102870000D03*
X142240000Y-102235000D03*
X142240000Y-104775000D03*
X157480000Y-100965000D03*
X161925000Y-100330000D03*
D13*
X136525000Y-85725000D02*
X151765000Y-85725000D01*
X134620000Y-83820000D02*
X136525000Y-85725000D01*
X139700000Y-83820000D02*
X139700000Y-85090000D01*
X146050000Y-85090000D02*
X152400000Y-85090000D01*
X144780000Y-83820000D02*
X146050000Y-85090000D01*
X142240000Y-83820000D02*
X142240000Y-84455000D01*
X143510000Y-82550000D02*
X142240000Y-83820000D01*
X148590000Y-82550000D02*
X143510000Y-82550000D01*
X149860000Y-83820000D02*
X148590000Y-82550000D01*
X158115000Y-82550000D02*
X161290000Y-82550000D01*
X161290000Y-82550000D02*
X163830000Y-85090000D01*
X156845000Y-83820000D02*
X158115000Y-82550000D01*
X154940000Y-83820000D02*
X156845000Y-83820000D01*
X151765000Y-84455000D02*
X153035000Y-84455000D01*
X153035000Y-84455000D02*
X153670000Y-85090000D01*
X158750000Y-85090000D02*
X153670000Y-85090000D01*
X160020000Y-83820000D02*
X158750000Y-85090000D01*
X165100000Y-83820000D02*
X165100000Y-85090000D01*
X151765000Y-86995000D02*
X167005000Y-86995000D01*
X167005000Y-86995000D02*
X168275000Y-85725000D01*
X168275000Y-85725000D02*
X170180000Y-83820000D01*
X134620000Y-88900000D02*
X134620000Y-87630000D01*
X142240000Y-86360000D02*
X152400000Y-86360000D01*
X139700000Y-88900000D02*
X142240000Y-86360000D01*
X144780000Y-88900000D02*
X143510000Y-88900000D01*
X149860000Y-88900000D02*
X151130000Y-88900000D01*
X151130000Y-88900000D02*
X151765000Y-88265000D01*
X154940000Y-88900000D02*
X152400000Y-88900000D01*
X160020000Y-88900000D02*
X162560000Y-88900000D01*
X152400000Y-87630000D02*
X163830000Y-87630000D01*
X163830000Y-87630000D02*
X165100000Y-88900000D01*
X170180000Y-88900000D02*
X170180000Y-87630000D01*
X134620000Y-93980000D02*
X135890000Y-95250000D01*
X145415000Y-95885000D02*
X149225000Y-95885000D01*
X135890000Y-95250000D02*
X144780000Y-95250000D01*
X144780000Y-95250000D02*
X145415000Y-95885000D01*
X149225000Y-95885000D02*
X151130000Y-95885000D01*
X139700000Y-93980000D02*
X139700000Y-90170000D01*
X149225000Y-95250000D02*
X150495000Y-95250000D01*
X146050000Y-95250000D02*
X149225000Y-95250000D01*
X144780000Y-93980000D02*
X146050000Y-95250000D01*
X149860000Y-93980000D02*
X146685000Y-90805000D01*
X146685000Y-90805000D02*
X140335000Y-90805000D01*
X154940000Y-93980000D02*
X156210000Y-92710000D01*
X156210000Y-92710000D02*
X163830000Y-92710000D01*
X153035000Y-91440000D02*
X153035000Y-92075000D01*
X153035000Y-93980000D02*
X153035000Y-92075000D01*
X153035000Y-94615000D02*
X153035000Y-93980000D01*
X153670000Y-95250000D02*
X153035000Y-94615000D01*
X155575000Y-95250000D02*
X153670000Y-95250000D01*
X158750000Y-95250000D02*
X155575000Y-95250000D01*
X160020000Y-93980000D02*
X158750000Y-95250000D01*
X165100000Y-93980000D02*
X165100000Y-90170000D01*
X153035000Y-95885000D02*
X159385000Y-95885000D01*
X167005000Y-95250000D02*
X160020000Y-95250000D01*
X160020000Y-95250000D02*
X159385000Y-95885000D01*
X168275000Y-93980000D02*
X167005000Y-95250000D01*
X170180000Y-93980000D02*
X168275000Y-93980000D01*
X152400000Y-92075000D02*
X152400000Y-95250000D01*
X152400000Y-95250000D02*
X153035000Y-95885000D01*
X134620000Y-99060000D02*
X133350000Y-97790000D01*
X144780000Y-96520000D02*
X150495000Y-96520000D01*
X140335000Y-95885000D02*
X144145000Y-95885000D01*
X144145000Y-95885000D02*
X144780000Y-96520000D01*
X139700000Y-96520000D02*
X140335000Y-95885000D01*
X139700000Y-99060000D02*
X139700000Y-96520000D01*
X144780000Y-99060000D02*
X142240000Y-96520000D01*
X151130000Y-99060000D02*
X151765000Y-98425000D01*
X149860000Y-99060000D02*
X151130000Y-99060000D01*
X154940000Y-99060000D02*
X153670000Y-97790000D01*
X151130000Y-97790000D02*
X153670000Y-97790000D01*
X162560000Y-96520000D02*
X163830000Y-96520000D01*
X160020000Y-99060000D02*
X162560000Y-96520000D01*
X160020000Y-96520000D02*
X152400000Y-96520000D01*
X160655000Y-95885000D02*
X160020000Y-96520000D01*
X164465000Y-95885000D02*
X160655000Y-95885000D01*
X165100000Y-96520000D02*
X164465000Y-95885000D01*
X165100000Y-99060000D02*
X165100000Y-96520000D01*
X151765000Y-95885000D02*
X151765000Y-93345000D01*
X151765000Y-93345000D02*
X151765000Y-92710000D01*
X152400000Y-96520000D02*
X151765000Y-95885000D01*
X170815000Y-92075000D02*
X170180000Y-92075000D01*
X171450000Y-92710000D02*
X170815000Y-92075000D01*
X171450000Y-95885000D02*
X171450000Y-92710000D01*
X170180000Y-97155000D02*
X171450000Y-95885000D01*
X170180000Y-99060000D02*
X170180000Y-97155000D01*
X134620000Y-104140000D02*
X137795000Y-107315000D01*
X137795000Y-107315000D02*
X148590000Y-107315000D01*
X148590000Y-107315000D02*
X149860000Y-106045000D01*
X149860000Y-106045000D02*
X151130000Y-106045000D01*
X139700000Y-104140000D02*
X139700000Y-105410000D01*
X146050000Y-105410000D02*
X150495000Y-105410000D01*
X144780000Y-104140000D02*
X146050000Y-105410000D01*
X142240000Y-106045000D02*
X140335000Y-106045000D01*
X142875000Y-105410000D02*
X142240000Y-106045000D01*
X143510000Y-102870000D02*
X142875000Y-103505000D01*
X142875000Y-103505000D02*
X142875000Y-105410000D01*
X146685000Y-102870000D02*
X143510000Y-102870000D01*
X147955000Y-104140000D02*
X146685000Y-102870000D01*
X149860000Y-104140000D02*
X147955000Y-104140000D01*
X161290000Y-102870000D02*
X165100000Y-106680000D01*
X158115000Y-102870000D02*
X161290000Y-102870000D01*
X156845000Y-104140000D02*
X158115000Y-102870000D01*
X154940000Y-104140000D02*
X156845000Y-104140000D01*
X153670000Y-105410000D02*
X151765000Y-107315000D01*
X158750000Y-105410000D02*
X153670000Y-105410000D01*
X160020000Y-104140000D02*
X158750000Y-105410000D01*
X165100000Y-104140000D02*
X167640000Y-104140000D01*
X167640000Y-104140000D02*
X169545000Y-106045000D01*
X170180000Y-106680000D02*
X168910000Y-107950000D01*
X168910000Y-107950000D02*
X165100000Y-107950000D01*
X170180000Y-104140000D02*
X170180000Y-106680000D01*
X165100000Y-107950000D02*
X163195000Y-106045000D01*
X163195000Y-106045000D02*
X154305000Y-106045000D01*
X152400000Y-107950000D02*
X151130000Y-107950000D01*
X154305000Y-106045000D02*
X152400000Y-107950000D01*
X134620000Y-109220000D02*
X134620000Y-107950000D01*
X139700000Y-109220000D02*
X140970000Y-107950000D01*
X140970000Y-107950000D02*
X149225000Y-107950000D01*
X149225000Y-107950000D02*
X150495000Y-106680000D01*
X143510000Y-109220000D02*
X141605000Y-111125000D01*
X141605000Y-111125000D02*
X139700000Y-111125000D01*
X144780000Y-109220000D02*
X143510000Y-109220000D01*
X149860000Y-109220000D02*
X151765000Y-111125000D01*
X154940000Y-109220000D02*
X154940000Y-110490000D01*
D14*
X161925000Y-111125000D02*
X169545000Y-111125000D01*
X160020000Y-109220000D02*
X161925000Y-111125000D01*
D13*
X153035000Y-108585000D02*
X151765000Y-108585000D01*
X154940000Y-106680000D02*
X153035000Y-108585000D01*
X162560000Y-106680000D02*
X154940000Y-106680000D01*
X165100000Y-109220000D02*
X162560000Y-106680000D01*
D14*
X170180000Y-109220000D02*
X170180000Y-110490000D01*
D13*
X134620000Y-114300000D02*
X135890000Y-115570000D01*
X146685000Y-117475000D02*
X149860000Y-117475000D01*
X135890000Y-115570000D02*
X144780000Y-115570000D01*
X144780000Y-115570000D02*
X146685000Y-117475000D01*
X139700000Y-114300000D02*
X139700000Y-112395000D01*
X149225000Y-116840000D02*
X147320000Y-116840000D01*
X147320000Y-116840000D02*
X146050000Y-115570000D01*
X144780000Y-114300000D02*
X146050000Y-115570000D01*
X148590000Y-113030000D02*
X140970000Y-113030000D01*
X149860000Y-114300000D02*
X148590000Y-113030000D01*
D14*
X154940000Y-114300000D02*
X156845000Y-112395000D01*
X156845000Y-112395000D02*
X170180000Y-112395000D01*
D13*
X153035000Y-114935000D02*
X153035000Y-114300000D01*
X154305000Y-116205000D02*
X153035000Y-114935000D01*
X158115000Y-116205000D02*
X154305000Y-116205000D01*
X160020000Y-114300000D02*
X158115000Y-116205000D01*
D14*
X165100000Y-114300000D02*
X165100000Y-113030000D01*
D13*
X158750000Y-116840000D02*
X153670000Y-116840000D01*
X160020000Y-115570000D02*
X158750000Y-116840000D01*
X168910000Y-115570000D02*
X160020000Y-115570000D01*
X170180000Y-114300000D02*
X168910000Y-115570000D01*
X152400000Y-115570000D02*
X152400000Y-114935000D01*
X153670000Y-116840000D02*
X152400000Y-115570000D01*
X134620000Y-119380000D02*
X134620000Y-116205000D01*
X140335000Y-116205000D02*
X139700000Y-116840000D01*
X139700000Y-116840000D02*
X139700000Y-119380000D01*
X144145000Y-116205000D02*
X140335000Y-116205000D01*
X146050000Y-118110000D02*
X149225000Y-118110000D01*
X146050000Y-118110000D02*
X144145000Y-116205000D01*
X144780000Y-119380000D02*
X143510000Y-119380000D01*
X143510000Y-119380000D02*
X140970000Y-116840000D01*
X149860000Y-119380000D02*
X151130000Y-119380000D01*
X153035000Y-119380000D02*
X149860000Y-116205000D01*
X153670000Y-119380000D02*
X153035000Y-119380000D01*
X154940000Y-119380000D02*
X153670000Y-119380000D01*
X160020000Y-119380000D02*
X161290000Y-119380000D01*
X161290000Y-119380000D02*
X163830000Y-116840000D01*
X158750000Y-118110000D02*
X153670000Y-118110000D01*
X164465000Y-116205000D02*
X160655000Y-116205000D01*
X160655000Y-116205000D02*
X158750000Y-118110000D01*
X165100000Y-116840000D02*
X164465000Y-116205000D01*
X165100000Y-119380000D02*
X165100000Y-116840000D01*
X151765000Y-115570000D02*
X151765000Y-116205000D01*
X153670000Y-118110000D02*
X151765000Y-116205000D01*
D14*
X170180000Y-119380000D02*
X170180000Y-116205000D01*
D13*
X156845000Y-98425000D02*
X156845000Y-100330000D01*
X156210000Y-100965000D02*
X156845000Y-100330000D01*
X156845000Y-101600000D02*
X156210000Y-100965000D01*
X156210000Y-100965000D02*
X154940000Y-100965000D01*
X162560000Y-101600000D02*
X156845000Y-101600000D01*
X135890000Y-98425000D02*
X138430000Y-100965000D01*
X138430000Y-100965000D02*
X154940000Y-100965000D01*
X163830000Y-102235000D02*
X167005000Y-102235000D01*
X162560000Y-102235000D02*
X163830000Y-102235000D01*
X163830000Y-102235000D02*
X163830000Y-99060000D01*
X163830000Y-99060000D02*
X162560000Y-97790000D01*
X157480000Y-102235000D02*
X167005000Y-102235000D01*
X153035000Y-102870000D02*
X156845000Y-102870000D01*
X156845000Y-102870000D02*
X157480000Y-102235000D01*
X167005000Y-102235000D02*
X167894000Y-103124000D01*
X142240000Y-102235000D02*
X142240000Y-104775000D01*
X161925000Y-100330000D02*
X158115000Y-100330000D01*
X158115000Y-100330000D02*
X157480000Y-100965000D01*
M02*
