M48
INCH,TZ
T1C0.016
T2C0.030
T3C0.031
T4C0.039
T5C0.040
T6C0.118
%
G90
G05
T1
X2.9Y-2.75
X3.25Y-3.35
X3.3Y-3.4
T2
X2.55Y-2.3
X2.55Y-2.9
X2.65Y-2.3
X2.65Y-2.9
X2.75Y-2.3
X2.75Y-2.9
X2.85Y-2.3
X2.85Y-2.9
X2.95Y-2.3
X2.95Y-2.9
X3.05Y-2.3
X3.05Y-2.9
X3.15Y-2.3
X3.15Y-2.9
X3.25Y-2.3
X3.25Y-2.9
X3.35Y-2.3
X3.35Y-2.9
X3.45Y-2.3
X3.45Y-2.9
X3.55Y-2.3
X3.55Y-2.9
X3.65Y-2.3
X3.65Y-2.9
X3.75Y-2.3
X3.75Y-2.9
X3.85Y-2.3
X3.85Y-2.4
X3.85Y-2.5
X3.85Y-2.6
X3.85Y-2.7
X3.85Y-2.8
X3.85Y-2.9
T3
X2.15Y-3.2
X2.15Y-3.5
X2.25Y-3.2
X2.25Y-3.5
X2.35Y-3.2
X2.35Y-3.5
X2.45Y-3.2
X2.45Y-3.5
X2.55Y-2.45
X2.55Y-3.2
X2.55Y-3.5
X2.65Y-3.2
X2.65Y-3.5
X2.7469Y-2.45
X2.75Y-3.2
X2.75Y-3.5
X2.85Y-3.2
X2.85Y-3.5
X3.05Y-2.7
X3.05Y-3.2
X3.05Y-3.5
X3.15Y-3.2
X3.15Y-3.5
X3.2469Y-2.7
X3.25Y-3.2
X3.25Y-3.5
X3.35Y-3.2
X3.35Y-3.5
X3.3531Y-2.7
X3.45Y-3.2
X3.45Y-3.5
X3.55Y-2.7
X3.55Y-3.2
X3.55Y-3.5
X3.65Y-3.2
X3.65Y-3.5
X3.6531Y-3.65
X3.7Y-2.6
X3.7Y-2.7969
X3.85Y-3.65
T4
X2.85Y-3.1
X2.85Y-3.6
X2.85Y-3.7
X3.05Y-2.4
X3.05Y-2.5
X3.15Y-3.1
X3.15Y-3.6
X3.15Y-3.7
X3.15Y-3.8
X3.25Y-3.1
X3.25Y-3.6
X3.25Y-3.7
X3.3Y-3.9
X3.35Y-2.4
X3.35Y-2.5
X3.45Y-2.4
X3.45Y-2.5
X3.45Y-3.8
X3.55Y-3.1
X3.55Y-3.6
X3.55Y-3.7
X3.6Y-3.9
X3.75Y-2.4
X3.75Y-2.5
X3.85Y-3.2
X3.85Y-3.5
T5
X2.25Y-3.
X2.35Y-3.
X2.45Y-3.
X2.55Y-3.
X2.65Y-3.
X2.75Y-3.
X2.85Y-2.2
X2.85Y-3.
X2.95Y-2.2
X2.95Y-3.
X3.05Y-2.2
X3.05Y-3.
X3.15Y-2.2
X3.15Y-3.
X3.25Y-2.2
X3.25Y-3.
X3.35Y-2.2
X3.35Y-3.
X3.45Y-2.2
X3.45Y-3.
X3.55Y-2.2
X3.55Y-3.
X3.65Y-2.2
X3.65Y-3.
X3.75Y-3.
T6
X2.15Y-2.15
X2.15Y-3.85
X3.85Y-2.15
X3.85Y-3.85
T0
M30
