G04 #@! TF.FileFunction,Copper,L1,Top,Signal*
%FSLAX46Y46*%
G04 Gerber Fmt 4.6, Leading zero omitted, Abs format (unit mm)*
G04 Created by KiCad (PCBNEW (2015-11-29 BZR 6336)-product) date vrijdag 15 april 2016 20:58:08*
%MOMM*%
G01*
G04 APERTURE LIST*
%ADD10C,0.100000*%
%ADD11R,1.300000X1.300000*%
%ADD12C,1.300000*%
%ADD13O,1.600000X1.600000*%
%ADD14C,1.998980*%
%ADD15C,1.524000*%
%ADD16R,1.727200X2.032000*%
%ADD17O,1.727200X2.032000*%
%ADD18C,0.600000*%
%ADD19C,0.250000*%
G04 APERTURE END LIST*
D10*
D11*
X92790000Y-92710000D03*
D12*
X97790000Y-92710000D03*
D13*
X77470000Y-88900000D03*
X80010000Y-88900000D03*
X82550000Y-88900000D03*
X85090000Y-88900000D03*
X87630000Y-88900000D03*
X90170000Y-88900000D03*
X92710000Y-88900000D03*
X92710000Y-81280000D03*
X90170000Y-81280000D03*
X87630000Y-81280000D03*
X85090000Y-81280000D03*
X82550000Y-81280000D03*
X80010000Y-81280000D03*
X77470000Y-81280000D03*
D14*
X82550000Y-93980000D03*
X90170000Y-93980000D03*
X83820000Y-99060000D03*
X91440000Y-99060000D03*
X80010000Y-93980000D03*
X72390000Y-93980000D03*
X80010000Y-91440000D03*
X72390000Y-91440000D03*
D15*
X72390000Y-73660000D03*
X77470000Y-73660000D03*
X82550000Y-73660000D03*
X74930000Y-73660000D03*
X80010000Y-73660000D03*
X69850000Y-73660000D03*
X64770000Y-73660000D03*
X67310000Y-73660000D03*
X87630000Y-73660000D03*
X85090000Y-73660000D03*
X90170000Y-73660000D03*
X95250000Y-73660000D03*
X92710000Y-73660000D03*
X97790000Y-73660000D03*
X97790000Y-71120000D03*
X97790000Y-68580000D03*
X97790000Y-66040000D03*
X97790000Y-63500000D03*
X97790000Y-60960000D03*
X72390000Y-58420000D03*
X74930000Y-58420000D03*
X80010000Y-58420000D03*
X77470000Y-58420000D03*
X82550000Y-58420000D03*
X85090000Y-58420000D03*
X90170000Y-58420000D03*
X95250000Y-58420000D03*
X92710000Y-58420000D03*
X87630000Y-58420000D03*
X97790000Y-58420000D03*
X67310000Y-58420000D03*
X69850000Y-58420000D03*
X64770000Y-58420000D03*
D16*
X57150000Y-76200000D03*
D17*
X59690000Y-76200000D03*
X62230000Y-76200000D03*
X64770000Y-76200000D03*
X67310000Y-76200000D03*
X69850000Y-76200000D03*
X72390000Y-76200000D03*
X74930000Y-76200000D03*
X77470000Y-76200000D03*
X80010000Y-76200000D03*
X82550000Y-76200000D03*
X85090000Y-76200000D03*
X87630000Y-76200000D03*
X90170000Y-76200000D03*
X92710000Y-76200000D03*
X95250000Y-76200000D03*
D11*
X64770000Y-62230000D03*
D12*
X69770000Y-62230000D03*
D14*
X97790000Y-88900000D03*
X97790000Y-81280000D03*
D11*
X77470000Y-68580000D03*
D12*
X82470000Y-68580000D03*
D13*
X72390000Y-81280000D03*
X69850000Y-81280000D03*
X67310000Y-81280000D03*
X64770000Y-81280000D03*
X62230000Y-81280000D03*
X59690000Y-81280000D03*
X57150000Y-81280000D03*
X54610000Y-81280000D03*
X54610000Y-88900000D03*
X57150000Y-88900000D03*
X59690000Y-88900000D03*
X62230000Y-88900000D03*
X64770000Y-88900000D03*
X67310000Y-88900000D03*
X69850000Y-88900000D03*
X72390000Y-88900000D03*
D11*
X90170000Y-68580000D03*
D12*
X85170000Y-68580000D03*
D14*
X82550000Y-91440000D03*
X90170000Y-91440000D03*
X80010000Y-96520000D03*
X87630000Y-96520000D03*
X85090000Y-63500000D03*
X77470000Y-63500000D03*
X72390000Y-78740000D03*
X80010000Y-78740000D03*
X77470000Y-60960000D03*
X85090000Y-60960000D03*
X82550000Y-78740000D03*
X90170000Y-78740000D03*
X87630000Y-63500000D03*
X95250000Y-63500000D03*
X95250000Y-60960000D03*
X87630000Y-60960000D03*
D11*
X93980000Y-71040000D03*
D12*
X93980000Y-66040000D03*
D16*
X72390000Y-55880000D03*
D17*
X74930000Y-55880000D03*
X77470000Y-55880000D03*
X80010000Y-55880000D03*
X82550000Y-55880000D03*
X85090000Y-55880000D03*
X87630000Y-55880000D03*
X90170000Y-55880000D03*
X92710000Y-55880000D03*
D18*
X73660000Y-69850000D03*
X82550000Y-85090000D03*
X83820000Y-86360000D03*
D19*
X92790000Y-92710000D02*
X91520000Y-91440000D01*
X91520000Y-91440000D02*
X90170000Y-91440000D01*
X77470000Y-60960000D02*
X77470000Y-58420000D01*
X77470000Y-63500000D02*
X77470000Y-60960000D01*
X86360000Y-82550000D02*
X86360000Y-72390000D01*
X82470000Y-68580000D02*
X82550000Y-68580000D01*
X82550000Y-68580000D02*
X86360000Y-72390000D01*
X86360000Y-82550000D02*
X90170000Y-86360000D01*
X90170000Y-86360000D02*
X92710000Y-88900000D01*
X88900000Y-90170000D02*
X88900000Y-87630000D01*
X88900000Y-87630000D02*
X90170000Y-86360000D01*
X87630000Y-91440000D02*
X88900000Y-90170000D01*
X87630000Y-96520000D02*
X87630000Y-91440000D01*
X74930000Y-78740000D02*
X74930000Y-76200000D01*
X74930000Y-83820000D02*
X74930000Y-78740000D01*
X74930000Y-78740000D02*
X72390000Y-78740000D01*
X74930000Y-83820000D02*
X73025000Y-83820000D01*
X72390000Y-84455000D02*
X73025000Y-83820000D01*
X72390000Y-88900000D02*
X72390000Y-84455000D01*
X74930000Y-83820000D02*
X84455000Y-83820000D01*
X84455000Y-83820000D02*
X85090000Y-84455000D01*
X85090000Y-84455000D02*
X85090000Y-88900000D01*
X64770000Y-58420000D02*
X64770000Y-62230000D01*
X76200000Y-53340000D02*
X77470000Y-54610000D01*
X77470000Y-54610000D02*
X77470000Y-55880000D01*
X68580000Y-53340000D02*
X76200000Y-53340000D01*
X67310000Y-54610000D02*
X68580000Y-53340000D01*
X67310000Y-58420000D02*
X67310000Y-54610000D01*
X54610000Y-84455000D02*
X55880000Y-83185000D01*
X55880000Y-83185000D02*
X57150000Y-83185000D01*
X54610000Y-88900000D02*
X54610000Y-84455000D01*
X57150000Y-83185000D02*
X57150000Y-81280000D01*
X60960000Y-82550000D02*
X60325000Y-83185000D01*
X60325000Y-83185000D02*
X57150000Y-83185000D01*
X60960000Y-82550000D02*
X60960000Y-74930000D01*
X60960000Y-82550000D02*
X60960000Y-80010000D01*
X75565000Y-78105000D02*
X75565000Y-82550000D01*
X77470000Y-76200000D02*
X75565000Y-78105000D01*
X84455000Y-83185000D02*
X85090000Y-82550000D01*
X75565000Y-82550000D02*
X76200000Y-83185000D01*
X76200000Y-83185000D02*
X84455000Y-83185000D01*
X85090000Y-82550000D02*
X85090000Y-81280000D01*
X60960000Y-80010000D02*
X60960000Y-74930000D01*
X60960000Y-74930000D02*
X60960000Y-79375000D01*
X62230000Y-73660000D02*
X60960000Y-74930000D01*
X64770000Y-73660000D02*
X62230000Y-73660000D01*
X54610000Y-81280000D02*
X57150000Y-81280000D01*
X83185000Y-60960000D02*
X85090000Y-60960000D01*
X78740000Y-65405000D02*
X83185000Y-60960000D01*
X76200000Y-65405000D02*
X78740000Y-65405000D01*
X73025000Y-62230000D02*
X76200000Y-65405000D01*
X69770000Y-62230000D02*
X73025000Y-62230000D01*
X97790000Y-66040000D02*
X93980000Y-66040000D01*
X69770000Y-62230000D02*
X69770000Y-63420000D01*
X69770000Y-63420000D02*
X73660000Y-67310000D01*
X73660000Y-69850000D02*
X73660000Y-67310000D01*
X87630000Y-60960000D02*
X85090000Y-60960000D01*
X69770000Y-62230000D02*
X67310000Y-59770000D01*
X67310000Y-59770000D02*
X67310000Y-58420000D01*
X95250000Y-60960000D02*
X95250000Y-58420000D01*
X95250000Y-63500000D02*
X95250000Y-60960000D01*
X90170000Y-66040000D02*
X92710000Y-63500000D01*
X92710000Y-63500000D02*
X95250000Y-63500000D01*
X90170000Y-68580000D02*
X90170000Y-66040000D01*
X88265000Y-79375000D02*
X90170000Y-81280000D01*
X88265000Y-78105000D02*
X88265000Y-79375000D01*
X88900000Y-77470000D02*
X88900000Y-72310000D01*
X88900000Y-77470000D02*
X88265000Y-78105000D01*
X88900000Y-72310000D02*
X85170000Y-68580000D01*
X97790000Y-81280000D02*
X92710000Y-81280000D01*
X90170000Y-81280000D02*
X92710000Y-81280000D01*
X80010000Y-73660000D02*
X80010000Y-72390000D01*
X58420000Y-71120000D02*
X57150000Y-72390000D01*
X80010000Y-72390000D02*
X78740000Y-71120000D01*
X78740000Y-71120000D02*
X58420000Y-71120000D01*
X57150000Y-72390000D02*
X57150000Y-76200000D01*
X60325000Y-71755000D02*
X76835000Y-71755000D01*
X77470000Y-73660000D02*
X77470000Y-72390000D01*
X77470000Y-72390000D02*
X76835000Y-71755000D01*
X60325000Y-71755000D02*
X59690000Y-72390000D01*
X59690000Y-72390000D02*
X59690000Y-76200000D01*
X63500000Y-77470000D02*
X63500000Y-87630000D01*
X63500000Y-87630000D02*
X64770000Y-88900000D01*
X62230000Y-76200000D02*
X63500000Y-77470000D01*
X64770000Y-76200000D02*
X67310000Y-73660000D01*
X67310000Y-76200000D02*
X69850000Y-73660000D01*
X69850000Y-76200000D02*
X72390000Y-73660000D01*
X72390000Y-76200000D02*
X74930000Y-73660000D01*
X82550000Y-76200000D02*
X82550000Y-73660000D01*
X85090000Y-76200000D02*
X85090000Y-73660000D01*
X87630000Y-76200000D02*
X87630000Y-73660000D01*
X90170000Y-76200000D02*
X90170000Y-73660000D01*
X92710000Y-76200000D02*
X92710000Y-73660000D01*
X95250000Y-76200000D02*
X95250000Y-73660000D01*
X82550000Y-93980000D02*
X82550000Y-91440000D01*
X82550000Y-91440000D02*
X82550000Y-88900000D01*
X87630000Y-99060000D02*
X90170000Y-96520000D01*
X83820000Y-99060000D02*
X87630000Y-99060000D01*
X67310000Y-88900000D02*
X67310000Y-86360000D01*
X67310000Y-86360000D02*
X72390000Y-81280000D01*
X82550000Y-85090000D02*
X83820000Y-86360000D01*
X90170000Y-96520000D02*
X90170000Y-93980000D01*
X80010000Y-81280000D02*
X77470000Y-81280000D01*
X62230000Y-88900000D02*
X62230000Y-81280000D01*
X80010000Y-91440000D02*
X80010000Y-88900000D01*
X77470000Y-90170000D02*
X76200000Y-91440000D01*
X76200000Y-91440000D02*
X72390000Y-91440000D01*
X77470000Y-88900000D02*
X77470000Y-90170000D01*
X72390000Y-93980000D02*
X72390000Y-91440000D01*
X83820000Y-96520000D02*
X85090000Y-95250000D01*
X85090000Y-91440000D02*
X85090000Y-95250000D01*
X87630000Y-88900000D02*
X85090000Y-91440000D01*
X80010000Y-96520000D02*
X83820000Y-96520000D01*
X80010000Y-96520000D02*
X80010000Y-93980000D01*
X87630000Y-68580000D02*
X87630000Y-63500000D01*
X90090000Y-71040000D02*
X87630000Y-68580000D01*
X93980000Y-71040000D02*
X90090000Y-71040000D01*
X95250000Y-68580000D02*
X93980000Y-69850000D01*
X93980000Y-69850000D02*
X93980000Y-71040000D01*
X97790000Y-68580000D02*
X95250000Y-68580000D01*
X85090000Y-63500000D02*
X87630000Y-63500000D01*
X82550000Y-78740000D02*
X80010000Y-78740000D01*
X82550000Y-78740000D02*
X82550000Y-81280000D01*
X92075000Y-90805000D02*
X95250000Y-90805000D01*
X95250000Y-90805000D02*
X96520000Y-90805000D01*
X91440000Y-97790000D02*
X95250000Y-93980000D01*
X95250000Y-93980000D02*
X95250000Y-90805000D01*
X91440000Y-99060000D02*
X91440000Y-97790000D01*
X97155000Y-90805000D02*
X97790000Y-90170000D01*
X96520000Y-90805000D02*
X97155000Y-90805000D01*
X90170000Y-88900000D02*
X92075000Y-90805000D01*
X97790000Y-90170000D02*
X97790000Y-88900000D01*
X72390000Y-58420000D02*
X72390000Y-55880000D01*
X74930000Y-58420000D02*
X74930000Y-55880000D01*
X80010000Y-58420000D02*
X80010000Y-55880000D01*
X82550000Y-58420000D02*
X82550000Y-55880000D01*
X85090000Y-58420000D02*
X85090000Y-55880000D01*
X90170000Y-58420000D02*
X90170000Y-55880000D01*
X87630000Y-58420000D02*
X87630000Y-55880000D01*
X92710000Y-58420000D02*
X92710000Y-55880000D01*
M02*
